<?xml version="1.0" encoding="utf-8"?>
<svg width="109.999985px" height="107.999985px" viewBox="0 0 109.999985 107.999985" version="1.1" xmlns:xlink="http://www.w3.org/1999/xlink" xmlns="http://www.w3.org/2000/svg">
  <defs>
    <filter filterUnits="userSpaceOnUse" color-interpolation-filters="sRGB" id="filter_1">
      <feFlood flood-opacity="0" result="BackgroundImageFix" />
      <feColorMatrix in="SourceAlpha" type="matrix" values="0 0 0 0 0 0 0 0 0 0 0 0 0 0 0 0 0 0 127 0" />
      <feOffset dx="11" dy="11" />
      <feGaussianBlur stdDeviation="5" />
      <feColorMatrix type="matrix" values="0 0 0 0 0.39215687 0 0 0 0 0.39215687 0 0 0 0 0.39215687 0 0 0 1 0" />
      <feBlend mode="normal" in2="BackgroundImageFix" result="effect0_dropShadow" />
      <feBlend mode="normal" in="SourceGraphic" in2="effect0_dropShadow" result="shape" />
    </filter>
  </defs>
  <path d="M-125.001 -248.6L-94.999 -248.6Q-94.3853 -248.6 -93.7724 -248.57Q-93.1594 -248.54 -92.5487 -248.48Q-91.9379 -248.42 -91.3309 -248.33Q-90.7238 -248.239 -90.1219 -248.12Q-89.52 -248 -88.9247 -247.851Q-88.3294 -247.702 -87.7422 -247.524Q-87.1549 -247.345 -86.5771 -247.139Q-85.9993 -246.932 -85.4323 -246.697Q-84.8653 -246.462 -84.3105 -246.2Q-83.7558 -245.938 -83.2145 -245.648Q-82.6733 -245.359 -82.1469 -245.043Q-81.6206 -244.728 -81.1103 -244.387Q-80.6 -244.046 -80.1071 -243.68Q-79.6142 -243.315 -79.1398 -242.926Q-78.6654 -242.536 -78.2107 -242.124Q-77.756 -241.712 -77.322 -241.278Q-76.8881 -240.844 -76.476 -240.389Q-76.0638 -239.935 -75.6745 -239.46Q-75.2852 -238.986 -74.9196 -238.493Q-74.554 -238 -74.2131 -237.49Q-73.8721 -236.98 -73.5566 -236.453Q-73.2411 -235.927 -72.9518 -235.386Q-72.6626 -234.844 -72.4002 -234.29Q-72.1378 -233.735 -71.9029 -233.168Q-71.6681 -232.601 -71.4613 -232.023Q-71.2546 -231.445 -71.0764 -230.858Q-70.8983 -230.271 -70.7492 -229.675Q-70.6001 -229.08 -70.4803 -228.478Q-70.3606 -227.876 -70.2706 -227.269Q-70.1805 -226.662 -70.1204 -226.051Q-70.0602 -225.441 -70.0301 -224.828Q-70 -224.215 -70 -223.601L-70 -195.599Q-70 -194.985 -70.0301 -194.372Q-70.0602 -193.76 -70.1204 -193.149Q-70.1805 -192.538 -70.2706 -191.931Q-70.3606 -191.324 -70.4803 -190.722Q-70.6001 -190.12 -70.7492 -189.525Q-70.8983 -188.93 -71.0764 -188.342Q-71.2546 -187.755 -71.4613 -187.177Q-71.6681 -186.599 -71.9029 -186.032Q-72.1378 -185.465 -72.4002 -184.911Q-72.6626 -184.356 -72.9518 -183.815Q-73.2411 -183.273 -73.5566 -182.747Q-73.8721 -182.221 -74.2131 -181.71Q-74.554 -181.2 -74.9196 -180.707Q-75.2852 -180.214 -75.6745 -179.74Q-76.0638 -179.266 -76.476 -178.811Q-76.8881 -178.356 -77.322 -177.922Q-77.756 -177.488 -78.2107 -177.076Q-78.6654 -176.664 -79.1398 -176.275Q-79.6142 -175.885 -80.1071 -175.52Q-80.6 -175.154 -81.1103 -174.813Q-81.6206 -174.472 -82.1469 -174.157Q-82.6733 -173.841 -83.2145 -173.552Q-83.7558 -173.263 -84.3105 -173Q-84.8653 -172.738 -85.4323 -172.503Q-85.9993 -172.268 -86.5771 -172.061Q-87.1549 -171.855 -87.7422 -171.677Q-88.3294 -171.498 -88.9247 -171.349Q-89.52 -171.2 -90.1219 -171.08Q-90.7238 -170.961 -91.3309 -170.871Q-91.9379 -170.781 -92.5487 -170.72Q-93.1594 -170.66 -93.7723 -170.63Q-94.3853 -170.6 -94.999 -170.6L-125.001 -170.6Q-125.615 -170.6 -126.228 -170.63Q-126.841 -170.66 -127.451 -170.72Q-128.062 -170.781 -128.669 -170.871Q-129.276 -170.961 -129.878 -171.08Q-130.48 -171.2 -131.075 -171.349Q-131.671 -171.498 -132.258 -171.677Q-132.845 -171.855 -133.423 -172.061Q-134.001 -172.268 -134.568 -172.503Q-135.135 -172.738 -135.689 -173Q-136.244 -173.263 -136.785 -173.552Q-137.327 -173.841 -137.853 -174.157Q-138.379 -174.472 -138.89 -174.813Q-139.4 -175.154 -139.893 -175.52Q-140.386 -175.885 -140.86 -176.275Q-141.335 -176.664 -141.789 -177.076Q-142.244 -177.488 -142.678 -177.922Q-143.112 -178.356 -143.524 -178.811Q-143.936 -179.266 -144.325 -179.74Q-144.715 -180.214 -145.08 -180.707Q-145.446 -181.2 -145.787 -181.71Q-146.128 -182.221 -146.443 -182.747Q-146.759 -183.273 -147.048 -183.815Q-147.337 -184.356 -147.6 -184.911Q-147.862 -185.465 -148.097 -186.032Q-148.332 -186.599 -148.539 -187.177Q-148.745 -187.755 -148.924 -188.342Q-149.102 -188.93 -149.251 -189.525Q-149.4 -190.12 -149.52 -190.722Q-149.639 -191.324 -149.729 -191.931Q-149.819 -192.538 -149.88 -193.149Q-149.94 -193.76 -149.97 -194.372Q-150 -194.985 -150 -195.599L-150 -223.601Q-150 -224.215 -149.97 -224.828Q-149.94 -225.441 -149.88 -226.051Q-149.819 -226.662 -149.729 -227.269Q-149.639 -227.876 -149.52 -228.478Q-149.4 -229.08 -149.251 -229.675Q-149.102 -230.271 -148.924 -230.858Q-148.745 -231.445 -148.539 -232.023Q-148.332 -232.601 -148.097 -233.168Q-147.862 -233.735 -147.6 -234.29Q-147.337 -234.844 -147.048 -235.386Q-146.759 -235.927 -146.443 -236.453Q-146.128 -236.98 -145.787 -237.49Q-145.446 -238 -145.08 -238.493Q-144.715 -238.986 -144.325 -239.46Q-143.936 -239.935 -143.524 -240.389Q-143.112 -240.844 -142.678 -241.278Q-142.244 -241.712 -141.789 -242.124Q-141.335 -242.536 -140.86 -242.926Q-140.386 -243.315 -139.893 -243.68Q-139.4 -244.046 -138.89 -244.387Q-138.379 -244.728 -137.853 -245.043Q-137.327 -245.359 -136.785 -245.648Q-136.244 -245.938 -135.689 -246.2Q-135.135 -246.462 -134.568 -246.697Q-134.001 -246.932 -133.423 -247.139Q-132.845 -247.345 -132.258 -247.524Q-131.671 -247.702 -131.075 -247.851Q-130.48 -248 -129.878 -248.12Q-129.276 -248.239 -128.669 -248.33Q-128.062 -248.42 -127.451 -248.48Q-126.841 -248.54 -126.228 -248.57Q-125.615 -248.6 -125.001 -248.6Z" id="Rectangle-2" fill="#0011FF" fill-rule="evenodd" stroke="none" filter="url(#filter_1)" />
</svg>