<?xml version="1.0" encoding="utf-8"?>
<svg width="414px" height="734.0001px" viewBox="0 0 414 734.0001" version="1.1" xmlns:xlink="http://www.w3.org/1999/xlink" xmlns="http://www.w3.org/2000/svg">
  <defs>
    <radialGradient gradientUnits="objectBoundingBox" cx="50%" cy="95.74913%" fx="50%" fy="95.74913%" r="131.73874%" gradientTransform="translate(0.5,0.95749134),scale(1,0.56284153),rotate(90.49107),translate(-0.5,-0.95749134)" id="gradient_1">
      <stop offset="0%" stop-color="#2200FF" />
      <stop offset="100%" stop-color="#59ADFF" />
    </radialGradient>
    <filter filterUnits="userSpaceOnUse" color-interpolation-filters="sRGB" id="filter_1">
      <feFlood flood-opacity="0" result="BackgroundImageFix" />
      <feColorMatrix in="SourceAlpha" type="matrix" values="0 0 0 0 0 0 0 0 0 0 0 0 0 0 0 0 0 0 127 0" />
      <feOffset dx="2" dy="5" />
      <feGaussianBlur stdDeviation="0" />
      <feColorMatrix type="matrix" values="0 0 0 0 0.40784314 0 0 0 0 0.40784314 0 0 0 0 0.40784314 0 0 0 1 0" />
      <feBlend mode="normal" in2="BackgroundImageFix" result="effect0_dropShadow" />
      <feBlend mode="normal" in="SourceGraphic" in2="effect0_dropShadow" result="shape" />
    </filter>
    <filter filterUnits="userSpaceOnUse" color-interpolation-filters="sRGB" id="filter_2">
      <feFlood flood-opacity="0" result="BackgroundImageFix" />
      <feColorMatrix in="SourceAlpha" type="matrix" values="0 0 0 0 0 0 0 0 0 0 0 0 0 0 0 0 0 0 127 0" />
      <feOffset dx="2" dy="5" />
      <feGaussianBlur stdDeviation="0" />
      <feColorMatrix type="matrix" values="0 0 0 0 0.39215687 0 0 0 0 0.39215687 0 0 0 0 0.39215687 0 0 0 1 0" />
      <feBlend mode="normal" in2="BackgroundImageFix" result="effect0_dropShadow" />
      <feBlend mode="normal" in="SourceGraphic" in2="effect0_dropShadow" result="shape" />
    </filter>
  </defs>
  <g id="Group" transform="translate(1 1)">
    <path d="M0 0L412 0L412 732L0 732L0 0Z" id="Rectangle" fill="#D3D3D3" fill-rule="evenodd" stroke="none" />
    <path d="M0 9.15527e-05L412 9.15527e-05L412 732L0 732L0 9.15527e-05Z" id="Rectangle-5" fill="url(#gradient_1)" fill-rule="evenodd" stroke="none" />
    <path d="M43.499 353L368.501 353Q369.078 353 369.654 353.028Q370.23 353.057 370.804 353.113Q371.378 353.17 371.949 353.254Q372.52 353.339 373.085 353.451Q373.651 353.564 374.211 353.704Q374.77 353.844 375.322 354.012Q375.874 354.179 376.418 354.374Q376.961 354.568 377.494 354.789Q378.027 355.009 378.548 355.256Q379.07 355.503 379.578 355.775Q380.087 356.047 380.582 356.343Q381.077 356.64 381.556 356.96Q382.036 357.281 382.499 357.624Q382.963 357.968 383.409 358.334Q383.855 358.7 384.282 359.087Q384.709 359.475 385.117 359.883Q385.525 360.291 385.913 360.718Q386.3 361.145 386.666 361.591Q387.032 362.037 387.376 362.501Q387.719 362.964 388.04 363.444Q388.36 363.923 388.657 364.418Q388.953 364.913 389.225 365.422Q389.497 365.93 389.744 366.452Q389.99 366.973 390.211 367.506Q390.432 368.039 390.626 368.582Q390.821 369.125 390.988 369.678Q391.156 370.23 391.296 370.789Q391.436 371.349 391.548 371.914Q391.661 372.48 391.746 373.051Q391.83 373.622 391.887 374.196Q391.943 374.77 391.972 375.346Q392 375.922 392 376.499L392 376.501Q392 377.078 391.972 377.654Q391.943 378.23 391.887 378.804Q391.83 379.378 391.746 379.949Q391.661 380.52 391.548 381.085Q391.436 381.651 391.296 382.211Q391.156 382.77 390.988 383.322Q390.821 383.874 390.626 384.417Q390.432 384.961 390.211 385.494Q389.99 386.027 389.744 386.548Q389.497 387.07 389.225 387.578Q388.953 388.087 388.657 388.582Q388.36 389.077 388.04 389.556Q387.719 390.036 387.376 390.499Q387.032 390.963 386.666 391.409Q386.3 391.854 385.913 392.282Q385.525 392.709 385.117 393.117Q384.709 393.525 384.282 393.913Q383.855 394.3 383.409 394.666Q382.963 395.032 382.499 395.375Q382.036 395.719 381.556 396.04Q381.077 396.36 380.582 396.657Q380.087 396.953 379.578 397.225Q379.07 397.497 378.548 397.744Q378.027 397.99 377.494 398.211Q376.961 398.432 376.418 398.626Q375.874 398.821 375.322 398.988Q374.77 399.156 374.211 399.296Q373.651 399.436 373.085 399.548Q372.52 399.661 371.949 399.746Q371.378 399.83 370.804 399.887Q370.23 399.943 369.654 399.972Q369.078 400 368.501 400L43.499 400Q42.9221 400 42.346 399.972Q41.7698 399.943 41.1957 399.887Q40.6216 399.83 40.051 399.746Q39.4804 399.661 38.9146 399.548Q38.3488 399.436 37.7892 399.296Q37.2296 399.156 36.6776 398.988Q36.1256 398.821 35.5824 398.626Q35.0393 398.432 34.5063 398.211Q33.9734 397.99 33.4519 397.744Q32.9304 397.497 32.4216 397.225Q31.9129 396.953 31.4181 396.657Q30.9233 396.36 30.4436 396.04Q29.964 395.719 29.5007 395.375Q29.0373 395.032 28.5914 394.666Q28.1455 394.3 27.718 393.913Q27.2906 393.525 26.8827 393.117Q26.4748 392.709 26.0874 392.282Q25.7 391.854 25.334 391.409Q24.9681 390.963 24.6244 390.499Q24.2808 390.036 23.9603 389.556Q23.6398 389.077 23.3432 388.582Q23.0467 388.087 22.7747 387.578Q22.5028 387.07 22.2562 386.548Q22.0095 386.027 21.7888 385.494Q21.568 384.961 21.3737 384.417Q21.1793 383.874 21.0119 383.322Q20.8444 382.77 20.7042 382.211Q20.5641 381.651 20.4515 381.085Q20.339 380.52 20.2543 379.949Q20.1697 379.378 20.1132 378.804Q20.0566 378.23 20.0283 377.654Q20 377.078 20 376.501L20 376.499Q20 375.922 20.0283 375.346Q20.0566 374.77 20.1132 374.196Q20.1697 373.622 20.2543 373.051Q20.339 372.48 20.4515 371.915Q20.5641 371.349 20.7042 370.789Q20.8444 370.23 21.0119 369.678Q21.1793 369.125 21.3737 368.582Q21.568 368.039 21.7888 367.506Q22.0095 366.973 22.2562 366.452Q22.5028 365.93 22.7747 365.422Q23.0467 364.913 23.3432 364.418Q23.6398 363.923 23.9603 363.444Q24.2808 362.964 24.6244 362.501Q24.9681 362.037 25.334 361.591Q25.7 361.145 26.0874 360.718Q26.4748 360.291 26.8827 359.883Q27.2906 359.475 27.718 359.087Q28.1455 358.7 28.5914 358.334Q29.0373 357.968 29.5007 357.624Q29.964 357.281 30.4436 356.96Q30.9233 356.64 31.4181 356.343Q31.9129 356.047 32.4216 355.775Q32.9304 355.503 33.4519 355.256Q33.9734 355.009 34.5063 354.789Q35.0393 354.568 35.5824 354.374Q36.1256 354.179 36.6776 354.012Q37.2296 353.844 37.7892 353.704Q38.3488 353.564 38.9146 353.452Q39.4804 353.339 40.051 353.254Q40.6216 353.17 41.1957 353.113Q41.7698 353.057 42.346 353.028Q42.9221 353 43.499 353Z" id="Rectangle-3" fill="#59ADFF" fill-rule="evenodd" stroke="none" filter="url(#filter_1)" />
    <path d="M43.4991 256L368.501 256Q369.078 256 369.654 256.028Q370.23 256.057 370.804 256.113Q371.379 256.17 371.949 256.254Q372.52 256.339 373.086 256.452Q373.651 256.564 374.211 256.704Q374.77 256.845 375.323 257.012Q375.875 257.179 376.418 257.374Q376.961 257.568 377.494 257.789Q378.027 258.01 378.548 258.256Q379.07 258.503 379.578 258.775Q380.087 259.047 380.582 259.343Q381.077 259.64 381.556 259.96Q382.036 260.281 382.499 260.625Q382.963 260.968 383.409 261.334Q383.855 261.7 384.282 262.087Q384.71 262.475 385.117 262.883Q385.525 263.291 385.913 263.718Q386.3 264.146 386.666 264.591Q387.032 265.037 387.376 265.501Q387.719 265.964 388.04 266.444Q388.36 266.923 388.657 267.418Q388.953 267.913 389.225 268.422Q389.497 268.93 389.744 269.452Q389.991 269.973 390.211 270.506Q390.432 271.039 390.626 271.582Q390.821 272.126 390.988 272.678Q391.156 273.23 391.296 273.789Q391.436 274.349 391.549 274.915Q391.661 275.48 391.746 276.051Q391.83 276.622 391.887 277.196Q391.944 277.77 391.972 278.346Q392 278.922 392 279.499L392 279.501Q392 280.078 391.972 280.654Q391.944 281.23 391.887 281.804Q391.83 282.379 391.746 282.949Q391.661 283.52 391.549 284.086Q391.436 284.651 391.296 285.211Q391.156 285.77 390.988 286.323Q390.821 286.875 390.626 287.418Q390.432 287.961 390.211 288.494Q389.991 289.027 389.744 289.548Q389.497 290.07 389.225 290.578Q388.953 291.087 388.657 291.582Q388.36 292.077 388.04 292.556Q387.719 293.036 387.376 293.499Q387.032 293.963 386.666 294.409Q386.3 294.855 385.913 295.282Q385.525 295.71 385.117 296.117Q384.71 296.525 384.282 296.913Q383.855 297.3 383.409 297.666Q382.963 298.032 382.499 298.376Q382.036 298.719 381.556 299.04Q381.077 299.36 380.582 299.657Q380.087 299.953 379.578 300.225Q379.07 300.497 378.548 300.744Q378.027 300.991 377.494 301.211Q376.961 301.432 376.418 301.626Q375.875 301.821 375.322 301.988Q374.77 302.156 374.211 302.296Q373.651 302.436 373.086 302.549Q372.52 302.661 371.949 302.746Q371.379 302.83 370.804 302.887Q370.23 302.943 369.654 302.972Q369.078 303 368.501 303L43.4991 303Q42.9222 303 42.3461 302.972Q41.7699 302.943 41.1958 302.887Q40.6217 302.83 40.0511 302.746Q39.4805 302.661 38.9147 302.549Q38.3489 302.436 37.7893 302.296Q37.2298 302.156 36.6777 301.988Q36.1257 301.821 35.5825 301.626Q35.0394 301.432 34.5064 301.211Q33.9735 300.991 33.452 300.744Q32.9305 300.497 32.4218 300.225Q31.913 299.953 31.4182 299.657Q30.9234 299.36 30.4438 299.04Q29.9641 298.719 29.5008 298.376Q29.0374 298.032 28.5915 297.666Q28.1456 297.3 27.7182 296.913Q27.2907 296.525 26.8828 296.117Q26.4749 295.71 26.0875 295.282Q25.7001 294.855 25.3342 294.409Q24.9682 293.963 24.6245 293.499Q24.2809 293.036 23.9604 292.556Q23.6399 292.077 23.3434 291.582Q23.0468 291.087 22.7749 290.578Q22.5029 290.07 22.2563 289.548Q22.0096 289.027 21.7889 288.494Q21.5681 287.961 21.3738 287.418Q21.1794 286.875 21.012 286.323Q20.8445 285.77 20.7044 285.211Q20.5642 284.651 20.4516 284.086Q20.3391 283.52 20.2545 282.949Q20.1698 282.379 20.1133 281.804Q20.0567 281.23 20.0284 280.654Q20.0001 280.078 20.0001 279.501L20.0001 279.499Q20.0001 278.922 20.0284 278.346Q20.0567 277.77 20.1133 277.196Q20.1698 276.622 20.2545 276.051Q20.3391 275.48 20.4516 274.915Q20.5642 274.349 20.7044 273.789Q20.8445 273.23 21.012 272.678Q21.1794 272.126 21.3738 271.582Q21.5681 271.039 21.7889 270.506Q22.0096 269.973 22.2563 269.452Q22.5029 268.93 22.7749 268.422Q23.0468 267.913 23.3434 267.418Q23.6399 266.923 23.9604 266.444Q24.2809 265.964 24.6245 265.501Q24.9682 265.037 25.3342 264.591Q25.7001 264.146 26.0875 263.718Q26.4749 263.291 26.8828 262.883Q27.2907 262.475 27.7182 262.087Q28.1456 261.7 28.5915 261.334Q29.0374 260.968 29.5008 260.624Q29.9641 260.281 30.4438 259.96Q30.9234 259.64 31.4182 259.343Q31.913 259.047 32.4218 258.775Q32.9305 258.503 33.452 258.256Q33.9735 258.01 34.5064 257.789Q35.0394 257.568 35.5825 257.374Q36.1257 257.179 36.6777 257.012Q37.2298 256.845 37.7893 256.704Q38.3489 256.564 38.9147 256.452Q39.4805 256.339 40.0511 256.254Q40.6217 256.17 41.1958 256.113Q41.7699 256.057 42.3461 256.028Q42.9222 256 43.4991 256Z" id="Rectangle-2" fill="#59ADFF" fill-rule="evenodd" stroke="none" filter="url(#filter_2)" />
    <path d="M56.999 450L355.001 450Q355.909 450 356.816 450.045Q357.724 450.089 358.628 450.178Q359.531 450.267 360.43 450.4Q361.328 450.534 362.219 450.711Q363.11 450.888 363.991 451.109Q364.872 451.329 365.741 451.593Q366.61 451.857 367.466 452.163Q368.321 452.469 369.16 452.816Q369.999 453.164 370.82 453.552Q371.641 453.941 372.442 454.369Q373.243 454.797 374.022 455.264Q374.801 455.731 375.556 456.235Q376.312 456.74 377.041 457.281Q377.771 457.822 378.473 458.398Q379.175 458.975 379.848 459.585Q380.521 460.194 381.163 460.837Q381.805 461.479 382.415 462.152Q383.025 462.825 383.602 463.527Q384.178 464.229 384.719 464.959Q385.26 465.688 385.765 466.443Q386.269 467.199 386.736 467.978Q387.203 468.757 387.631 469.558Q388.059 470.359 388.448 471.18Q388.836 472.001 389.184 472.84Q389.531 473.679 389.837 474.534Q390.143 475.389 390.407 476.259Q390.67 477.128 390.891 478.009Q391.112 478.89 391.289 479.781Q391.466 480.672 391.599 481.57Q391.733 482.469 391.822 483.372Q391.911 484.276 391.955 485.184Q392 486.091 392 486.999L392 487.001Q392 487.909 391.955 488.816Q391.911 489.724 391.822 490.628Q391.733 491.531 391.6 492.43Q391.466 493.328 391.289 494.219Q391.112 495.11 390.891 495.991Q390.67 496.872 390.407 497.741Q390.143 498.61 389.837 499.466Q389.531 500.321 389.184 501.16Q388.836 501.999 388.448 502.82Q388.059 503.641 387.631 504.442Q387.203 505.243 386.736 506.022Q386.269 506.801 385.764 507.556Q385.26 508.312 384.719 509.041Q384.178 509.771 383.602 510.473Q383.025 511.175 382.415 511.848Q381.805 512.521 381.163 513.163Q380.521 513.805 379.848 514.415Q379.175 515.025 378.473 515.602Q377.771 516.178 377.041 516.719Q376.312 517.26 375.557 517.764Q374.801 518.269 374.022 518.736Q373.243 519.203 372.442 519.631Q371.641 520.059 370.82 520.448Q369.999 520.836 369.16 521.184Q368.321 521.531 367.466 521.837Q366.61 522.143 365.741 522.407Q364.872 522.67 363.991 522.891Q363.11 523.112 362.219 523.289Q361.328 523.466 360.43 523.599Q359.531 523.733 358.628 523.822Q357.724 523.911 356.816 523.955Q355.909 524 355.001 524L56.999 524Q56.0907 524 55.1835 523.955Q54.2764 523.911 53.3725 523.822Q52.4686 523.733 51.5701 523.599Q50.6717 523.466 49.7808 523.289Q48.89 523.112 48.009 522.891Q47.1279 522.67 46.2588 522.407Q45.3896 522.143 44.5344 521.837Q43.6792 521.531 42.8401 521.184Q42.001 520.836 41.1799 520.448Q40.3588 520.059 39.5578 519.631Q38.7568 519.203 37.9777 518.736Q37.1987 518.269 36.4435 517.765Q35.6882 517.26 34.9587 516.719Q34.2292 516.178 33.5271 515.602Q32.825 515.025 32.152 514.415Q31.479 513.805 30.8368 513.163Q30.1945 512.521 29.5845 511.848Q28.9746 511.175 28.3984 510.473Q27.8222 509.771 27.2811 509.041Q26.7401 508.312 26.2355 507.556Q25.7308 506.801 25.2639 506.022Q24.7969 505.243 24.3688 504.442Q23.9406 503.641 23.5523 502.82Q23.164 501.999 22.8164 501.16Q22.4688 500.321 22.1628 499.466Q21.8568 498.61 21.5932 497.741Q21.3295 496.872 21.1088 495.991Q20.8881 495.11 20.7109 494.219Q20.5337 493.328 20.4005 492.43Q20.2672 491.531 20.1782 490.628Q20.0891 489.724 20.0446 488.816Q20 487.909 20 487.001L20 486.999Q20 486.091 20.0446 485.184Q20.0891 484.276 20.1782 483.372Q20.2672 482.469 20.4005 481.57Q20.5337 480.672 20.7109 479.781Q20.8881 478.89 21.1088 478.009Q21.3295 477.128 21.5932 476.259Q21.8568 475.389 22.1628 474.534Q22.4688 473.679 22.8164 472.84Q23.164 472.001 23.5523 471.18Q23.9406 470.359 24.3688 469.558Q24.7969 468.757 25.2639 467.978Q25.7308 467.199 26.2355 466.443Q26.7401 465.688 27.2811 464.959Q27.8222 464.229 28.3984 463.527Q28.9746 462.825 29.5845 462.152Q30.1945 461.479 30.8368 460.837Q31.479 460.194 32.152 459.585Q32.825 458.975 33.5271 458.398Q34.2292 457.822 34.9587 457.281Q35.6882 456.74 36.4435 456.235Q37.1987 455.731 37.9777 455.264Q38.7568 454.797 39.5578 454.369Q40.3588 453.941 41.1799 453.552Q42.001 453.164 42.8401 452.816Q43.6792 452.469 44.5344 452.163Q45.3896 451.857 46.2588 451.593Q47.1279 451.329 48.009 451.109Q48.89 450.888 49.7808 450.711Q50.6717 450.534 51.5701 450.4Q52.4686 450.267 53.3725 450.178Q54.2764 450.089 55.1835 450.045Q56.0907 450 56.999 450Z" id="Rectangle-4" fill="#59ADFF" fill-rule="evenodd" stroke="#808080" stroke-width="2" filter="url(#filter_1)" />
    <g id="WELCOME" fill="#2F107D" transform="translate(35.500122 191.99997)">
      <path d="M175.801 11.7727L174.04 11.7727Q173.827 10.7642 173.223 10.0753Q172.619 9.38636 171.767 9.03125Q170.915 8.67614 169.949 8.67614Q168.628 8.67614 167.559 9.34375Q166.49 10.0114 165.862 11.3111Q165.233 12.6108 165.233 14.5Q165.233 16.3892 165.862 17.6889Q166.49 18.9886 167.559 19.6563Q168.628 20.3239 169.949 20.3239Q170.915 20.3239 171.767 19.9688Q172.619 19.6136 173.223 18.9247Q173.827 18.2358 174.04 17.2273L175.801 17.2273Q175.531 18.7188 174.7 19.7805Q173.869 20.8423 172.641 21.407Q171.412 21.9716 169.949 21.9716Q168.088 21.9716 166.639 21.0625Q165.19 20.1534 164.359 18.4773Q163.528 16.8011 163.528 14.5Q163.528 12.1989 164.359 10.5227Q165.19 8.84659 166.639 7.9375Q168.088 7.02841 169.949 7.02841Q171.412 7.02841 172.641 7.59304Q173.869 8.15767 174.7 9.21946Q175.531 10.2813 175.801 11.7727ZM190.084 18.4773Q190.915 16.8011 190.915 14.5Q190.915 12.1989 190.084 10.5227Q189.253 8.84659 187.804 7.9375Q186.355 7.02841 184.494 7.02841Q182.634 7.02841 181.185 7.9375Q179.736 8.84659 178.905 10.5227Q178.074 12.1989 178.074 14.5Q178.074 16.8011 178.905 18.4773Q179.736 20.1534 181.185 21.0625Q182.634 21.9716 184.494 21.9716Q186.355 21.9716 187.804 21.0625Q189.253 20.1534 190.084 18.4773ZM124.551 21.7727L120.574 7.22727L122.364 7.22727L125.403 19.0739L125.545 19.0739L128.642 7.22727L130.631 7.22727L133.727 19.0739L133.869 19.0739L136.909 7.22727L138.699 7.22727L134.722 21.7727L132.903 21.7727L129.693 10.1818L129.58 10.1818L126.369 21.7727L124.551 21.7727ZM140.886 21.7727L140.886 7.22727L149.665 7.22727L149.665 8.78977L142.648 8.78977L142.648 13.7045L149.21 13.7045L149.21 15.267L142.648 15.267L142.648 20.2102L149.778 20.2102L149.778 21.7727L140.886 21.7727ZM152.847 7.22727L152.847 21.7727L161.369 21.7727L161.369 20.2102L154.608 20.2102L154.608 7.22727L152.847 7.22727ZM193.869 7.22727L195.972 7.22727L200.915 19.3011L201.085 19.3011L206.028 7.22727L208.131 7.22727L208.131 21.7727L206.483 21.7727L206.483 10.7216L206.341 10.7216L201.795 21.7727L200.205 21.7727L195.659 10.7216L195.517 10.7216L195.517 21.7727L193.869 21.7727L193.869 7.22727ZM220.432 7.22727L211.653 7.22727L211.653 21.7727L220.545 21.7727L220.545 20.2102L213.415 20.2102L213.415 15.267L219.977 15.267L219.977 13.7045L213.415 13.7045L213.415 8.78977L220.432 8.78977L220.432 7.22727ZM188.582 11.3111Q189.21 12.6108 189.21 14.5Q189.21 16.3892 188.582 17.6889Q187.953 18.9886 186.884 19.6563Q185.815 20.3239 184.494 20.3239Q183.173 20.3239 182.104 19.6563Q181.036 18.9886 180.407 17.6889Q179.778 16.3892 179.778 14.5Q179.778 12.6108 180.407 11.3111Q181.036 10.0114 182.104 9.34375Q183.173 8.67614 184.494 8.67614Q185.815 8.67614 186.884 9.34375Q187.953 10.0114 188.582 11.3111Z" />
    </g>
    <g id="SIGN-IN" fill="#2500B8" transform="translate(35.5 450.0001)">
      <path d="M134.234 29.5937Q135.416 30.3693 135.582 31.7727L137.798 31.7727Q137.752 30.3416 136.917 29.2152Q136.081 28.0888 134.659 27.4379Q133.237 26.7869 131.409 26.7869Q129.599 26.7869 128.136 27.4471Q126.673 28.1072 125.809 29.2937Q124.946 30.4801 124.946 32.0682Q124.946 33.9794 126.239 35.1612Q127.531 36.343 129.747 36.9801L132.074 37.6449Q133.071 37.9219 133.93 38.2912Q134.788 38.6605 135.315 39.2514Q135.841 39.8423 135.841 40.7841Q135.841 41.8182 135.232 42.5891Q134.622 43.3601 133.579 43.7894Q132.536 44.2188 131.224 44.2188Q130.098 44.2188 129.124 43.8817Q128.15 43.5447 127.517 42.8477Q126.885 42.1506 126.793 41.0795L124.429 41.0795Q124.595 43.4063 126.386 44.8466Q128.178 46.2869 131.224 46.2869Q133.403 46.2869 134.931 45.5575Q136.46 44.8281 137.258 43.5909Q138.057 42.3537 138.057 40.821Q138.057 39.4915 137.512 38.5774Q136.967 37.6633 136.132 37.0771Q135.296 36.4908 134.387 36.1491Q133.477 35.8075 132.739 35.6136L130.818 35.0966Q130.116 34.9119 129.262 34.5657Q128.408 34.2195 127.785 33.5962Q127.162 32.973 127.162 31.9574Q127.162 30.6001 128.307 29.7092Q129.452 28.8182 131.335 28.8182Q133.053 28.8182 134.234 29.5937ZM161.619 32.9545Q161.019 31.0895 159.648 30.0092Q158.277 28.929 156.227 28.929Q154.547 28.929 153.171 29.7969Q151.795 30.6648 150.983 32.3544Q150.17 34.044 150.17 36.5Q150.17 38.956 150.992 40.6456Q151.814 42.3352 153.217 43.2031Q154.621 44.071 156.375 44.071Q157.972 44.071 159.205 43.3924Q160.438 42.7138 161.139 41.4719Q161.841 40.2301 161.878 38.5313L156.892 38.5313L156.892 36.5L164.094 36.5L164.094 38.5313Q164.094 40.8672 163.101 42.5938Q162.109 44.3203 160.368 45.2667Q158.628 46.2131 156.375 46.2131Q153.864 46.2131 151.966 45.0313Q150.069 43.8494 149.012 41.6705Q147.955 39.4915 147.955 36.5Q147.955 33.5085 149.012 31.3295Q150.069 29.1506 151.939 27.9687Q153.808 26.7869 156.227 26.7869Q158.222 26.7869 159.847 27.5671Q161.472 28.3473 162.552 29.7369Q163.632 31.1264 163.983 32.9545L161.619 32.9545ZM144.114 45.9545L144.114 27.0455L141.824 27.0455L141.824 45.9545L144.114 45.9545ZM180.787 45.9545L183.003 45.9545L183.003 27.0455L180.75 27.0455L180.75 41.929L180.565 41.929L170.224 27.0455L168.009 27.0455L168.009 45.9545L170.298 45.9545L170.298 31.108L170.483 31.108L180.787 45.9545ZM197.185 45.9545L194.895 45.9545L194.895 27.0455L197.185 27.0455L197.185 45.9545ZM214.543 45.9545L216.759 45.9545L216.759 27.0455L214.506 27.0455L214.506 41.929L214.321 41.929L203.98 27.0455L201.764 27.0455L201.764 45.9545L204.054 45.9545L204.054 31.108L204.239 31.108L214.543 45.9545Z" />
    </g>
    <g id="CURIOSITY" fill="#4000FF" transform="translate(50 77.99997)">
      <path d="M117.318 17.4941L117.711 23.3467L117.318 23.3467Q116.531 20.7188 115.071 19.5635Q113.611 18.4082 111.567 18.4082Q109.853 18.4082 108.469 19.2778Q107.085 20.1475 106.292 22.0518Q105.499 23.9561 105.499 26.7871Q105.499 29.123 106.248 30.8369Q106.997 32.5508 108.501 33.4648Q110.005 34.3789 111.935 34.3789Q113.611 34.3789 114.893 33.6616Q116.175 32.9443 117.711 30.8115L118.105 31.0654Q116.81 33.3633 115.083 34.4297Q113.357 35.4961 110.983 35.4961Q106.705 35.4961 104.356 32.3223Q102.604 29.9609 102.604 26.7617Q102.604 24.1846 103.759 22.0264Q104.915 19.8682 106.939 18.6812Q108.964 17.4941 111.364 17.4941Q113.23 17.4941 115.045 18.4082Q115.579 18.6875 115.807 18.6875Q116.15 18.6875 116.404 18.4463Q116.734 18.1035 116.874 17.4941L117.318 17.4941ZM179.1 20.0396Q176.643 17.4941 173.292 17.4941Q169.915 17.4941 167.49 19.7412Q164.697 22.3311 164.697 26.4316Q164.697 30.4434 167.115 32.9697Q169.534 35.4961 173.088 35.4961Q176.605 35.4961 179.081 32.9063Q181.556 30.3164 181.556 26.3936Q181.556 22.585 179.1 20.0396ZM194.48 17.4941L194.48 23.4482L194.01 23.4482Q193.782 21.7344 193.191 20.7188Q192.601 19.7031 191.509 19.1064Q190.417 18.5098 189.25 18.5098Q187.929 18.5098 187.066 19.3159Q186.203 20.1221 186.203 21.1504Q186.203 21.9375 186.749 22.585Q187.536 23.5371 190.494 25.124Q192.906 26.4189 193.788 27.1108Q194.67 27.8027 195.146 28.7422Q195.623 29.6816 195.623 30.71Q195.623 32.665 194.105 34.0806Q192.588 35.4961 190.202 35.4961Q189.453 35.4961 188.792 35.3818Q188.399 35.3184 187.161 34.9185Q185.923 34.5186 185.593 34.5186Q185.276 34.5186 185.092 34.709Q184.908 34.8994 184.819 35.4961L184.349 35.4961L184.349 29.5928L184.819 29.5928Q185.149 31.4463 185.708 32.3667Q186.266 33.2871 187.415 33.8965Q188.564 34.5059 189.935 34.5059Q191.522 34.5059 192.442 33.668Q193.363 32.8301 193.363 31.6875Q193.363 31.0527 193.014 30.4053Q192.665 29.7578 191.928 29.1992Q191.433 28.8184 189.224 27.5806Q187.015 26.3428 186.082 25.6064Q185.149 24.8701 184.667 23.9814Q184.184 23.0928 184.184 22.0264Q184.184 20.1729 185.606 18.8335Q187.028 17.4941 189.224 17.4941Q190.595 17.4941 192.131 18.167Q192.842 18.4844 193.134 18.4844Q193.464 18.4844 193.674 18.2876Q193.883 18.0908 194.01 17.4941L194.48 17.4941ZM131.41 18.3574L131.41 17.8877L137.503 17.8877L137.503 18.3574L136.856 18.3574Q135.84 18.3574 135.294 19.208Q135.028 19.6016 135.028 21.0361L135.028 28.0186Q135.028 30.6084 134.514 32.0366Q134 33.4648 132.495 34.4868Q130.991 35.5088 128.401 35.5088Q125.583 35.5088 124.123 34.5313Q122.663 33.5537 122.053 31.9033Q121.647 30.7734 121.647 27.6631L121.647 20.9346Q121.647 19.3477 121.209 18.8525Q120.771 18.3574 119.793 18.3574L119.146 18.3574L119.146 17.8877L126.585 17.8877L126.585 18.3574L125.925 18.3574Q124.859 18.3574 124.402 19.0303Q124.084 19.4873 124.084 20.9346L124.084 28.4375Q124.084 29.4404 124.269 30.7354Q124.453 32.0303 124.935 32.7539Q125.417 33.4775 126.325 33.9473Q127.233 34.417 128.553 34.417Q130.242 34.417 131.575 33.6807Q132.908 32.9443 133.396 31.7954Q133.885 30.6465 133.885 27.9043L133.885 20.9346Q133.885 19.3223 133.53 18.916Q133.035 18.3574 132.057 18.3574L131.41 18.3574ZM150.757 35.1025L155.353 35.1025L155.353 34.6328Q153.944 34.4805 153.068 33.9219Q152.192 33.3633 150.973 31.6621L147.418 26.7236Q149.589 26.2412 150.624 25.0732Q151.659 23.9053 151.659 22.3184Q151.659 20.833 150.751 19.7603Q149.843 18.6875 148.542 18.2876Q147.241 17.8877 144.499 17.8877L138.227 17.8877L138.227 18.3574L138.875 18.3574Q139.852 18.3574 140.347 18.916Q140.703 19.3096 140.703 20.9346L140.703 32.0557Q140.703 33.5283 140.436 33.9219Q139.966 34.6328 138.875 34.6328L138.227 34.6328L138.227 35.1025L145.603 35.1025L145.603 34.6328L144.93 34.6328Q143.965 34.6328 143.483 34.0742Q143.127 33.6807 143.127 32.0557L143.127 27.0537Q143.331 27.0664 143.521 27.0728Q143.711 27.0791 143.876 27.0791Q144.283 27.0791 144.93 27.0537L150.757 35.1025ZM163.148 34.6328L163.148 35.1025L155.772 35.1025L155.772 34.6328L156.381 34.6328Q157.448 34.6328 157.93 34.0107Q158.235 33.6045 158.235 32.0557L158.235 20.9346Q158.235 19.627 158.07 19.208Q157.943 18.8906 157.549 18.6621Q156.991 18.3574 156.381 18.3574L155.772 18.3574L155.772 17.8877L163.148 17.8877L163.148 18.3574L162.526 18.3574Q161.472 18.3574 160.99 18.9795Q160.672 19.3857 160.672 20.9346L160.672 32.0557Q160.672 33.3633 160.837 33.7822Q160.964 34.0996 161.371 34.3281Q161.917 34.6328 162.526 34.6328L163.148 34.6328ZM205.042 35.1025L205.042 34.6328L204.42 34.6328Q203.811 34.6328 203.265 34.3281Q202.859 34.0996 202.732 33.7822Q202.567 33.3633 202.567 32.0557L202.567 20.9346Q202.567 19.3857 202.884 18.9795Q203.367 18.3574 204.42 18.3574L205.042 18.3574L205.042 17.8877L197.667 17.8877L197.667 18.3574L198.276 18.3574Q198.885 18.3574 199.444 18.6621Q199.837 18.8906 199.964 19.208Q200.129 19.627 200.129 20.9346L200.129 32.0557Q200.129 33.6045 199.825 34.0107Q199.342 34.6328 198.276 34.6328L197.667 34.6328L197.667 35.1025L205.042 35.1025ZM220.721 17.8877L220.912 21.9248L220.429 21.9248Q220.29 20.8584 220.048 20.4014Q219.655 19.665 219.001 19.3159Q218.347 18.9668 217.281 18.9668L214.856 18.9668L214.856 32.1191Q214.856 33.7061 215.199 34.0996Q215.681 34.6328 216.684 34.6328L217.281 34.6328L217.281 35.1025L209.981 35.1025L209.981 34.6328L210.59 34.6328Q211.682 34.6328 212.139 33.9727Q212.418 33.5664 212.418 32.1191L212.418 18.9668L210.349 18.9668Q209.143 18.9668 208.635 19.1445Q207.975 19.3857 207.505 20.0713Q207.036 20.7568 206.947 21.9248L206.464 21.9248L206.667 17.8877L220.721 17.8877ZM239.955 17.8877L233.95 17.8877L233.95 18.3574Q234.635 18.3574 234.978 18.5161Q235.321 18.6748 235.505 18.9541Q235.689 19.2334 235.689 19.5889Q235.689 20.1729 234.927 21.3662L231.55 26.6729L227.958 21.125Q227.183 19.9316 227.183 19.4746Q227.183 18.916 227.685 18.6367Q228.186 18.3574 228.783 18.3574L229.164 18.3574L229.164 17.8877L221.8 17.8877L221.8 18.3574Q222.283 18.3574 222.537 18.4844Q223.476 18.9287 223.774 19.2461Q224.073 19.5635 224.911 20.833L229.633 28.0439L229.633 32.1191Q229.633 33.5664 229.354 33.9727Q228.897 34.6328 227.805 34.6328L227.196 34.6328L227.196 35.1025L234.508 35.1025L234.508 34.6328L233.95 34.6328Q232.909 34.6328 232.426 34.0996Q232.071 33.7061 232.071 32.1191L232.071 27.8027L236.222 21.2646Q236.984 20.0332 237.504 19.4873Q238.025 18.9414 238.66 18.6494Q239.294 18.3574 239.625 18.3574L239.955 18.3574L239.955 17.8877ZM169.343 20.1348Q170.74 18.4209 173.05 18.4209Q175.513 18.4209 176.91 20.1475Q178.649 22.3184 178.649 26.7363Q178.649 30.8115 177.068 32.7031Q175.488 34.5947 173.063 34.5947Q170.791 34.5947 169.407 32.8682Q167.604 30.5957 167.604 26.3809Q167.604 22.2676 169.343 20.1348ZM143.546 26.2603Q143.369 26.2539 143.127 26.2539L143.127 19.0938Q144.384 18.8525 145.121 18.8525Q146.784 18.8525 147.793 19.8618Q148.802 20.8711 148.802 22.4834Q148.802 24.1338 147.552 25.2002Q146.301 26.2666 143.838 26.2666Q143.724 26.2666 143.546 26.2603Z" />
    </g>
    <g id="name" transform="translate(20.500122 242.99997)">
      <path d="M167.761 42.8182L167.761 37.5682Q167.761 36.4261 168.395 35.804Q169.028 35.1818 169.989 35.1818Q170.92 35.1818 171.455 35.7585Q171.989 36.3352 171.989 37.3636L171.989 42.8182L173.33 42.8182L173.33 37.2727Q173.33 35.6023 172.514 34.7898Q171.699 33.9773 170.375 33.9773Q169.386 33.9773 168.761 34.3835Q168.136 34.7898 167.83 35.4545L167.716 35.4545L167.716 34.0909L166.42 34.0909L166.42 42.8182L167.761 42.8182ZM176.847 42.7074Q177.523 43.0227 178.352 43.0227Q179.114 43.0227 179.642 42.7955Q180.17 42.5682 180.489 42.2443Q180.807 41.9205 180.943 41.6364L181.011 41.6364L181.011 42.8182L182.352 42.8182L182.352 37.0682Q182.352 36.0284 182.011 35.4091Q181.67 34.7898 181.156 34.483Q180.642 34.1761 180.094 34.0767Q179.545 33.9773 179.125 33.9773Q178.466 33.9773 177.787 34.1563Q177.108 34.3352 176.537 34.7813Q175.966 35.2273 175.625 36.0227L176.898 36.4773Q177.119 36 177.665 35.5795Q178.21 35.1591 179.17 35.1591Q180.097 35.1591 180.554 35.625Q181.011 36.0909 181.011 36.9318L181.011 36.9773Q181.011 37.3011 180.781 37.4318Q180.551 37.5625 180.054 37.6165Q179.557 37.6705 178.761 37.7727Q178.153 37.8523 177.554 37.9858Q176.955 38.1193 176.46 38.3864Q175.966 38.6534 175.67 39.1222Q175.375 39.5909 175.375 40.3409Q175.375 41.1932 175.773 41.7926Q176.17 42.392 176.847 42.7074ZM184.807 42.8182L184.807 34.0909L186.102 34.0909L186.102 35.4545L186.216 35.4545Q186.489 34.7557 187.097 34.3665Q187.705 33.9773 188.557 33.9773Q189.42 33.9773 189.997 34.3665Q190.574 34.7557 190.898 35.4545L190.989 35.4545Q191.324 34.7784 191.994 34.3778Q192.665 33.9773 193.602 33.9773Q194.773 33.9773 195.517 34.7074Q196.261 35.4375 196.261 36.9773L196.261 42.8182L194.92 42.8182L194.92 36.9773Q194.92 36.0114 194.392 35.5966Q193.864 35.1818 193.148 35.1818Q192.227 35.1818 191.722 35.7358Q191.216 36.2898 191.216 37.1364L191.216 42.8182L189.852 42.8182L189.852 36.8409Q189.852 36.0966 189.369 35.6392Q188.886 35.1818 188.125 35.1818Q187.602 35.1818 187.151 35.4602Q186.699 35.7386 186.423 36.2301Q186.148 36.7216 186.148 37.3636L186.148 42.8182L184.807 42.8182ZM200.202 42.4403Q201.114 43 202.375 43Q203.705 43 204.625 42.392Q205.545 41.7841 205.852 40.7955L204.557 40.4318Q204.301 41.1136 203.733 41.4545Q203.165 41.7955 202.375 41.7955Q201.193 41.7955 200.446 41.0511Q199.699 40.3068 199.653 38.9091L205.989 38.9091L205.989 38.3409Q205.989 37.1193 205.665 36.2841Q205.341 35.4489 204.795 34.9403Q204.25 34.4318 203.585 34.2045Q202.92 33.9773 202.239 33.9773Q201.057 33.9773 200.173 34.554Q199.29 35.1307 198.798 36.1563Q198.307 37.1818 198.307 38.5227Q198.307 39.8636 198.798 40.8722Q199.29 41.8807 200.202 42.4403ZM204.625 37.75L199.653 37.75Q199.699 37.0739 200.023 36.4858Q200.347 35.8977 200.909 35.5398Q201.472 35.1818 202.239 35.1818Q203.33 35.1818 203.977 35.9119Q204.625 36.642 204.625 37.75ZM179.901 41.5057Q179.352 41.8182 178.557 41.8182Q177.756 41.8182 177.236 41.4631Q176.716 41.108 176.716 40.4091Q176.716 39.8977 176.991 39.5994Q177.267 39.3011 177.719 39.1506Q178.17 39 178.693 38.9318Q178.909 38.9034 179.259 38.8608Q179.608 38.8182 179.98 38.7585Q180.352 38.6989 180.639 38.6165Q180.926 38.5341 181.011 38.4318L181.011 39.6591Q181.011 40.2045 180.73 40.6989Q180.449 41.1932 179.901 41.5057Z" />
    </g>
    <g id="password" transform="translate(20 340.0001)">
      <path d="M215.631 42.446Q216.466 43 217.557 43Q218.398 43 218.903 42.7188Q219.409 42.4375 219.682 42.0767Q219.955 41.7159 220.102 41.4773L220.261 41.4773L220.261 42.8182L221.557 42.8182L221.557 31.1818L220.216 31.1818L220.216 35.4773L220.102 35.4773Q219.955 35.25 219.69 34.8949Q219.426 34.5398 218.929 34.2585Q218.432 33.9773 217.58 33.9773Q216.477 33.9773 215.636 34.5284Q214.795 35.0795 214.324 36.0909Q213.852 37.1023 213.852 38.4773Q213.852 39.8636 214.324 40.8778Q214.795 41.892 215.631 42.446ZM208.307 34.0909L209.602 34.0909L209.602 35.4091L209.693 35.4091Q209.932 34.7614 210.557 34.358Q211.182 33.9545 211.966 33.9545Q212.114 33.9545 212.335 33.9602Q212.557 33.9659 212.67 33.9773L212.67 35.3409Q212.602 35.3239 212.361 35.2869Q212.119 35.25 211.852 35.25Q210.898 35.25 210.273 35.8295Q209.648 36.4091 209.648 37.2955L209.648 42.8182L208.307 42.8182L208.307 34.0909ZM150.261 34.0909L150.261 46.0909L151.602 46.0909L151.602 41.4773L151.716 41.4773Q151.864 41.7159 152.136 42.0767Q152.409 42.4375 152.915 42.7188Q153.42 43 154.261 43Q155.352 43 156.188 42.446Q157.023 41.892 157.494 40.8778Q157.966 39.8636 157.966 38.4773Q157.966 37.1023 157.494 36.0909Q157.023 35.0795 156.182 34.5284Q155.341 33.9773 154.239 33.9773Q153.386 33.9773 152.889 34.2585Q152.392 34.5398 152.128 34.8949Q151.864 35.25 151.716 35.4773L151.557 35.4773L151.557 34.0909L150.261 34.0909ZM161.074 42.7074Q161.75 43.0227 162.58 43.0227Q163.341 43.0227 163.869 42.7955Q164.398 42.5682 164.716 42.2443Q165.034 41.9205 165.17 41.6364L165.239 41.6364L165.239 42.8182L166.58 42.8182L166.58 37.0682Q166.58 36.0284 166.239 35.4091Q165.898 34.7898 165.384 34.483Q164.869 34.1761 164.321 34.0767Q163.773 33.9773 163.352 33.9773Q162.693 33.9773 162.014 34.1563Q161.335 34.3352 160.764 34.7813Q160.193 35.2273 159.852 36.0227L161.125 36.4773Q161.347 36 161.892 35.5795Q162.438 35.1591 163.398 35.1591Q164.324 35.1591 164.781 35.625Q165.239 36.0909 165.239 36.9318L165.239 36.9773Q165.239 37.3011 165.009 37.4318Q164.778 37.5625 164.281 37.6165Q163.784 37.6705 162.989 37.7727Q162.381 37.8523 161.781 37.9858Q161.182 38.1193 160.688 38.3864Q160.193 38.6534 159.898 39.1222Q159.602 39.5909 159.602 40.3409Q159.602 41.1932 160 41.7926Q160.398 42.392 161.074 42.7074ZM175.216 36.0455L174.011 36.3864Q173.835 35.9318 173.42 35.5341Q173.006 35.1364 172.125 35.1364Q171.324 35.1364 170.793 35.5028Q170.261 35.8693 170.261 36.4318Q170.261 36.9318 170.625 37.2216Q170.989 37.5114 171.761 37.7045L173.057 38.0227Q175.375 38.5909 175.375 40.3864Q175.375 41.1364 174.946 41.7273Q174.517 42.3182 173.75 42.6591Q172.983 43 171.966 43Q170.631 43 169.756 42.4205Q168.881 41.8409 168.648 40.7273L169.92 40.4091Q170.278 41.8182 171.943 41.8182Q172.881 41.8182 173.435 41.4176Q173.989 41.017 173.989 40.4545Q173.989 39.5284 172.693 39.2273L171.239 38.8864Q170.04 38.6023 169.48 38.0028Q168.92 37.4034 168.92 36.5Q168.92 35.7614 169.338 35.1932Q169.756 34.625 170.48 34.3011Q171.205 33.9773 172.125 33.9773Q173.42 33.9773 174.162 34.5455Q174.903 35.1136 175.216 36.0455ZM182.375 36.3864L183.58 36.0455Q183.267 35.1136 182.526 34.5455Q181.784 33.9773 180.489 33.9773Q179.568 33.9773 178.844 34.3011Q178.119 34.625 177.702 35.1932Q177.284 35.7614 177.284 36.5Q177.284 37.4034 177.844 38.0028Q178.403 38.6023 179.602 38.8864L181.057 39.2273Q182.352 39.5284 182.352 40.4545Q182.352 41.017 181.798 41.4176Q181.244 41.8182 180.307 41.8182Q178.642 41.8182 178.284 40.4091L177.011 40.7273Q177.244 41.8409 178.119 42.4205Q178.994 43 180.33 43Q181.347 43 182.114 42.6591Q182.881 42.3182 183.31 41.7273Q183.739 41.1364 183.739 40.3864Q183.739 38.5909 181.42 38.0227L180.125 37.7045Q179.352 37.5114 178.989 37.2216Q178.625 36.9318 178.625 36.4318Q178.625 35.8693 179.156 35.5028Q179.688 35.1364 180.489 35.1364Q181.369 35.1364 181.784 35.5341Q182.199 35.9318 182.375 36.3864ZM200.236 42.4375Q201.125 43 202.307 43Q203.489 43 204.378 42.4375Q205.267 41.875 205.764 40.8636Q206.261 39.8523 206.261 38.5Q206.261 37.1364 205.764 36.1193Q205.267 35.1023 204.378 34.5398Q203.489 33.9773 202.307 33.9773Q201.125 33.9773 200.236 34.5398Q199.347 35.1023 198.849 36.1193Q198.352 37.1364 198.352 38.5Q198.352 39.8523 198.849 40.8636Q199.347 41.875 200.236 42.4375ZM185.08 34.0909L186.489 34.0909L188.375 40.7727L188.466 40.7727L190.33 34.0909L191.761 34.0909L193.602 40.75L193.693 40.75L195.58 34.0909L196.989 34.0909L194.33 42.8182L193.011 42.8182L191.102 36.1136L190.966 36.1136L189.057 42.8182L187.739 42.8182L185.08 34.0909ZM152.224 40.8665Q151.58 39.9375 151.58 38.4545Q151.58 36.9886 152.216 36.0852Q152.852 35.1818 154.08 35.1818Q154.932 35.1818 155.497 35.6165Q156.063 36.0511 156.344 36.7926Q156.625 37.5341 156.625 38.4545Q156.625 39.3864 156.338 40.1449Q156.051 40.9034 155.486 41.3494Q154.92 41.7955 154.08 41.7955Q152.869 41.7955 152.224 40.8665ZM203.784 41.3352Q203.205 41.7955 202.307 41.7955Q201.409 41.7955 200.83 41.3352Q200.25 40.875 199.972 40.125Q199.693 39.375 199.693 38.5Q199.693 37.625 199.972 36.8693Q200.25 36.1136 200.83 35.6477Q201.409 35.1818 202.307 35.1818Q203.205 35.1818 203.784 35.6477Q204.364 36.1136 204.642 36.8693Q204.92 37.625 204.92 38.5Q204.92 39.375 204.642 40.125Q204.364 40.875 203.784 41.3352ZM219.594 40.8665Q218.949 41.7955 217.739 41.7955Q216.898 41.7955 216.332 41.3494Q215.767 40.9034 215.48 40.1449Q215.193 39.3864 215.193 38.4545Q215.193 37.5341 215.474 36.7926Q215.756 36.0511 216.321 35.6165Q216.886 35.1818 217.739 35.1818Q218.966 35.1818 219.602 36.0852Q220.239 36.9886 220.239 38.4545Q220.239 39.9375 219.594 40.8665ZM164.128 41.5057Q163.58 41.8182 162.784 41.8182Q161.983 41.8182 161.463 41.4631Q160.943 41.108 160.943 40.4091Q160.943 39.8977 161.219 39.5994Q161.494 39.3011 161.946 39.1506Q162.398 39 162.92 38.9318Q163.136 38.9034 163.486 38.8608Q163.835 38.8182 164.207 38.7585Q164.58 38.6989 164.866 38.6165Q165.153 38.5341 165.239 38.4318L165.239 39.6591Q165.239 40.2045 164.957 40.6989Q164.676 41.1932 164.128 41.5057Z" />
    </g>
    <path d="M139.499 70.6001L169.501 70.6001Q170.115 70.6001 170.728 70.6302Q171.341 70.6603 171.951 70.7205Q172.562 70.7806 173.169 70.8707Q173.776 70.9607 174.378 71.0804Q174.98 71.2002 175.575 71.3493Q176.171 71.4984 176.758 71.6766Q177.345 71.8547 177.923 72.0614Q178.501 72.2682 179.068 72.503Q179.635 72.7379 180.189 73.0003Q180.744 73.2627 181.285 73.552Q181.827 73.8412 182.353 74.1567Q182.879 74.4722 183.39 74.8132Q183.9 75.1541 184.393 75.5197Q184.886 75.8853 185.36 76.2746Q185.835 76.6639 186.289 77.076Q186.744 77.4882 187.178 77.9221Q187.612 78.3561 188.024 78.8108Q188.436 79.2655 188.825 79.7399Q189.215 80.2143 189.58 80.7072Q189.946 81.2001 190.287 81.7104Q190.628 82.2207 190.943 82.747Q191.259 83.2734 191.548 83.8146Q191.837 84.3559 192.1 84.9106Q192.362 85.4654 192.597 86.0324Q192.832 86.5994 193.039 87.1772Q193.245 87.755 193.424 88.3423Q193.602 88.9295 193.751 89.5248Q193.9 90.1201 194.02 90.722Q194.139 91.3239 194.229 91.931Q194.319 92.538 194.38 93.1488Q194.44 93.7595 194.47 94.3725Q194.5 94.9854 194.5 95.5991L194.5 123.601Q194.5 124.215 194.47 124.828Q194.44 125.441 194.38 126.051Q194.319 126.662 194.229 127.269Q194.139 127.876 194.02 128.478Q193.9 129.08 193.751 129.675Q193.602 130.271 193.424 130.858Q193.245 131.445 193.039 132.023Q192.832 132.601 192.597 133.168Q192.362 133.735 192.1 134.29Q191.837 134.844 191.548 135.386Q191.259 135.927 190.943 136.453Q190.628 136.98 190.287 137.49Q189.946 138 189.58 138.493Q189.215 138.986 188.825 139.46Q188.436 139.935 188.024 140.389Q187.612 140.844 187.178 141.278Q186.744 141.712 186.289 142.124Q185.835 142.536 185.36 142.926Q184.886 143.315 184.393 143.68Q183.9 144.046 183.39 144.387Q182.879 144.728 182.353 145.043Q181.827 145.359 181.285 145.648Q180.744 145.938 180.189 146.2Q179.635 146.462 179.068 146.697Q178.501 146.932 177.923 147.139Q177.345 147.345 176.758 147.524Q176.171 147.702 175.575 147.851Q174.98 148 174.378 148.12Q173.776 148.239 173.169 148.33Q172.562 148.42 171.951 148.48Q171.341 148.54 170.728 148.57Q170.115 148.6 169.501 148.6L139.499 148.6Q138.885 148.6 138.272 148.57Q137.659 148.54 137.049 148.48Q136.438 148.42 135.831 148.33Q135.224 148.239 134.622 148.12Q134.02 148 133.425 147.851Q132.829 147.702 132.242 147.524Q131.655 147.345 131.077 147.139Q130.499 146.932 129.932 146.697Q129.365 146.462 128.811 146.2Q128.256 145.938 127.715 145.648Q127.173 145.359 126.647 145.043Q126.121 144.728 125.61 144.387Q125.1 144.046 124.607 143.68Q124.114 143.315 123.64 142.926Q123.165 142.536 122.711 142.124Q122.256 141.712 121.822 141.278Q121.388 140.844 120.976 140.389Q120.564 139.935 120.175 139.46Q119.785 138.986 119.42 138.493Q119.054 138 118.713 137.49Q118.372 136.98 118.057 136.453Q117.741 135.927 117.452 135.386Q117.163 134.844 116.9 134.29Q116.638 133.735 116.403 133.168Q116.168 132.601 115.961 132.023Q115.755 131.445 115.576 130.858Q115.398 130.271 115.249 129.675Q115.1 129.08 114.98 128.478Q114.861 127.876 114.771 127.269Q114.681 126.662 114.62 126.051Q114.56 125.441 114.53 124.828Q114.5 124.215 114.5 123.601L114.5 95.5991Q114.5 94.9854 114.53 94.3725Q114.56 93.7595 114.62 93.1488Q114.681 92.538 114.771 91.931Q114.861 91.3239 114.98 90.722Q115.1 90.1201 115.249 89.5248Q115.398 88.9295 115.576 88.3423Q115.755 87.755 115.961 87.1772Q116.168 86.5994 116.403 86.0324Q116.638 85.4654 116.9 84.9106Q117.163 84.3559 117.452 83.8146Q117.741 83.2734 118.057 82.747Q118.372 82.2207 118.713 81.7104Q119.054 81.2001 119.42 80.7072Q119.785 80.2143 120.174 79.7399Q120.564 79.2655 120.976 78.8108Q121.388 78.3561 121.822 77.9221Q122.256 77.4882 122.711 77.0761Q123.165 76.6639 123.64 76.2746Q124.114 75.8853 124.607 75.5197Q125.1 75.1541 125.61 74.8132Q126.121 74.4722 126.647 74.1567Q127.173 73.8412 127.715 73.5519Q128.256 73.2627 128.811 73.0003Q129.365 72.7379 129.932 72.503Q130.499 72.2682 131.077 72.0614Q131.655 71.8547 132.242 71.6766Q132.829 71.4984 133.425 71.3493Q134.02 71.2002 134.622 71.0804Q135.224 70.9607 135.831 70.8707Q136.438 70.7806 137.049 70.7205Q137.659 70.6603 138.272 70.6302Q138.885 70.6001 139.499 70.6001Z" id="Rectangle-2" fill="#0011FF" fill-rule="evenodd" stroke="none" />
    <g id="Dont-have-an-account-Register" transform="translate(114.5 651.0001)">
      <g id="Dont-have-an-account" fill="#FFFFFF">
        <path d="M48.252 4.23438L48.252 10.7773Q49.3359 9.58594 49.9707 9.24902Q50.6055 8.91211 51.2402 8.91211Q52.002 8.91211 52.5488 9.33203Q53.0957 9.75195 53.3594 10.6504Q53.5449 11.2754 53.5449 12.9355L53.5449 16.0996Q53.5449 16.9492 53.6816 17.2617Q53.7793 17.4961 54.0137 17.6328Q54.248 17.7695 54.873 17.7695L54.873 18.1211L50.4785 18.1211L50.4785 17.7695L50.6836 17.7695Q51.3086 17.7695 51.5527 17.5791Q51.7969 17.3887 51.8945 17.0176Q51.9238 16.8613 51.9238 16.0996L51.9238 12.9355Q51.9238 11.4707 51.7725 11.0117Q51.6211 10.5527 51.2891 10.3232Q50.957 10.0938 50.4883 10.0938Q50.0098 10.0938 49.4922 10.3477Q48.9746 10.6016 48.252 11.373L48.252 16.0996Q48.252 17.0176 48.3545 17.2422Q48.457 17.4668 48.7354 17.6182Q49.0137 17.7695 49.6973 17.7695L49.6973 18.1211L45.2637 18.1211L45.2637 17.7695Q45.8594 17.7695 46.2012 17.584Q46.3965 17.4863 46.5137 17.2129Q46.6309 16.9395 46.6309 16.0996L46.6309 8.00391Q46.6309 6.4707 46.5576 6.11914Q46.4844 5.76758 46.333 5.64063Q46.1816 5.51367 45.9277 5.51367Q45.7227 5.51367 45.2637 5.66992L45.127 5.32813L47.8027 4.23438L48.252 4.23438ZM177.852 14.9961L178.252 14.9961Q178.32 13.8242 178.638 13.1553Q178.955 12.4863 180.371 10.8848Q181.26 9.86914 181.577 9.11719Q181.895 8.36524 181.895 7.65234Q181.895 6.60742 181.191 5.74805Q180.244 4.57617 178.232 4.57617Q176.611 4.57617 175.664 5.42578Q174.717 6.27539 174.717 7.37891Q174.717 8.10156 175.054 8.50684Q175.391 8.91211 175.801 8.91211Q176.123 8.91211 176.348 8.67285Q176.572 8.43359 176.572 8.08203Q176.572 7.80859 176.279 7.28125Q175.986 6.75391 175.986 6.39258Q175.986 5.92383 176.475 5.52344Q176.963 5.12305 177.813 5.12305Q178.77 5.12305 179.429 5.85547Q180.088 6.58789 180.088 7.82813Q180.088 8.43359 179.912 9.02441Q179.736 9.61523 179.15 10.7188Q178.398 12.1543 178.159 12.96Q177.92 13.7656 177.852 14.9961ZM0.341797 17.7598L0.341797 18.1211L6.25977 18.1211Q10.1172 18.1211 12.002 16.0508Q13.6816 14.1953 13.6816 11.4316Q13.6816 9.37109 12.7393 7.79883Q11.7969 6.22656 10.249 5.55273Q8.70117 4.87891 5.73242 4.87891L0.341797 4.87891L0.341797 5.24023L0.839844 5.24023Q1.5918 5.24024 1.97266 5.66992Q2.24609 5.98242 2.24609 7.22266L2.24609 15.7773Q2.24609 16.9004 2.03125 17.2227Q1.67969 17.7598 0.839844 17.7598L0.341797 17.7598ZM6.20117 17.4375Q5.36133 17.4375 4.12109 17.1641L4.12109 5.9043Q5.24414 5.62109 6.12305 5.62109Q8.4668 5.62109 9.96094 7.20313Q11.4551 8.78516 11.4551 11.5293Q11.4551 14.2539 9.96094 15.8457Q8.4668 17.4375 6.20117 17.4375ZM37.666 9.17578L37.666 6.23633L37.3633 6.23633Q36.9629 7.22266 36.7383 7.59375Q36.2988 8.29688 35.7373 8.80957Q35.1758 9.32227 34.6387 9.53711L34.6387 9.85938L36.0547 9.85938L36.0547 15.875Q36.0547 16.8418 36.2598 17.3057Q36.4648 17.7695 36.8945 18.0186Q37.3242 18.2676 37.7734 18.2676Q38.4375 18.2676 39.0625 17.7842Q39.6875 17.3008 40.0293 16.3438L39.6484 16.3438Q39.4824 16.7344 39.1797 16.9346Q38.877 17.1348 38.5547 17.1348Q38.1641 17.1348 37.915 16.832Q37.666 16.5293 37.666 15.6602L37.666 9.85938L39.7559 9.85938L39.7559 9.17578L37.666 9.17578ZM171.484 6.23633L171.484 9.17578L173.574 9.17578L173.574 9.85938L171.484 9.85938L171.484 15.6602Q171.484 16.5293 171.733 16.832Q171.982 17.1348 172.373 17.1348Q172.695 17.1348 172.998 16.9346Q173.301 16.7344 173.467 16.3438L173.848 16.3438Q173.506 17.3008 172.881 17.7842Q172.256 18.2676 171.592 18.2676Q171.143 18.2676 170.713 18.0186Q170.283 17.7695 170.078 17.3057Q169.873 16.8418 169.873 15.875L169.873 9.85938L168.457 9.85938L168.457 9.53711Q168.994 9.32227 169.556 8.80957Q170.117 8.29688 170.557 7.59375Q170.781 7.22266 171.182 6.23633L171.484 6.23633ZM76.9727 15.6699Q75.9961 14.5371 76.0059 12.5449L82.1875 12.5449Q82.1875 10.8848 81.2207 9.89355Q80.2539 8.90234 78.75 8.90234Q76.9727 8.90234 75.7959 10.1865Q74.6191 11.4707 74.6191 13.7656Q74.6191 15.8848 75.7666 17.1396Q76.9141 18.3945 78.5254 18.3945Q80.0098 18.3945 80.9961 17.2959Q81.9824 16.1973 82.1875 14.8594L81.8848 14.6641Q81.4453 15.8359 80.7959 16.3193Q80.1465 16.8027 79.2676 16.8027Q77.9492 16.8027 76.9727 15.6699ZM22.7051 10.4551Q21.4746 8.91211 19.4434 8.91211Q18.3301 8.91211 17.334 9.49316Q16.3379 10.0742 15.7275 11.29Q15.1172 12.5059 15.1172 13.7363Q15.1172 15.4258 16.123 16.7832Q17.3145 18.3945 19.3359 18.3945Q20.5762 18.3945 21.5869 17.7695Q22.5977 17.1445 23.1738 15.9141Q23.75 14.6836 23.75 13.4824Q23.75 11.7734 22.7051 10.4551ZM27.6758 10.8066Q29.248 8.91211 30.6738 8.91211Q31.4063 8.91211 31.9336 9.27832Q32.4609 9.64453 32.7734 10.4844Q32.9883 11.0703 32.9883 12.2813L32.9883 16.0996Q32.9883 16.9492 33.125 17.252Q33.2324 17.4961 33.4717 17.6328Q33.7109 17.7695 34.3555 17.7695L34.3555 18.1211L29.9316 18.1211L29.9316 17.7695L30.1172 17.7695Q30.7422 17.7695 30.9912 17.5791Q31.2402 17.3887 31.3379 17.0176Q31.377 16.8711 31.377 16.0996L31.377 12.4375Q31.377 11.2168 31.0596 10.665Q30.7422 10.1133 29.9902 10.1133Q28.8281 10.1133 27.6758 11.3828L27.6758 16.0996Q27.6758 17.0078 27.7832 17.2227Q27.9199 17.5059 28.1592 17.6377Q28.3984 17.7695 29.1309 17.7695L29.1309 18.1211L24.707 18.1211L24.707 17.7695L24.9023 17.7695Q25.5859 17.7695 25.8252 17.4229Q26.0645 17.0762 26.0645 16.0996L26.0645 12.7793Q26.0645 11.168 25.9912 10.8164Q25.918 10.4648 25.7666 10.3379Q25.6152 10.2109 25.3613 10.2109Q25.0879 10.2109 24.707 10.3574L24.5605 10.0059L27.2559 8.91211L27.6758 8.91211L27.6758 10.8066ZM58.9648 18.0625Q59.3164 17.8965 60.6934 16.832Q60.7031 17.6328 60.9863 17.9648Q61.2695 18.2969 61.748 18.2969Q62.7441 18.2969 63.8379 16.832L63.8379 16.2852Q63.252 16.8711 63.0469 16.998Q62.9297 17.0664 62.7734 17.0664Q62.627 17.0664 62.5146 16.9688Q62.4023 16.8711 62.3535 16.583Q62.3047 16.2949 62.3047 15.0156L62.3047 11.9785Q62.3047 10.6797 62.1289 10.2598Q61.8555 9.61523 61.2793 9.3125Q60.5176 8.91211 59.3262 8.91211Q57.7734 8.91211 56.9141 9.61523Q56.0547 10.3184 56.0547 11.1582Q56.0547 11.5977 56.2842 11.8516Q56.5137 12.1055 56.875 12.1055Q57.2461 12.1055 57.4756 11.8613Q57.7051 11.6172 57.7051 11.168L57.6855 10.6016Q57.6855 10.1719 58.0566 9.83984Q58.418 9.50781 59.0332 9.50781Q59.8438 9.50781 60.2686 10.0059Q60.6934 10.5039 60.6934 11.8418L60.6934 12.1934Q58.3887 13.0332 57.3975 13.6191Q56.4063 14.2051 56.0059 14.8691Q55.7129 15.3477 55.7129 16.002Q55.7129 17.0371 56.3135 17.6719Q56.9141 18.3066 57.8418 18.3066Q58.4375 18.3066 58.9648 18.0625ZM93.4473 16.832Q92.0703 17.8965 91.7188 18.0625Q91.1914 18.3066 90.5957 18.3066Q89.668 18.3066 89.0674 17.6719Q88.4668 17.0371 88.4668 16.002Q88.4668 15.3477 88.7598 14.8691Q89.1602 14.2051 90.1514 13.6191Q91.1426 13.0332 93.4473 12.1934L93.4473 11.8418Q93.4473 10.5039 93.0225 10.0059Q92.5977 9.50781 91.7871 9.50781Q91.1719 9.50781 90.8105 9.83984Q90.4395 10.1719 90.4395 10.6016L90.459 11.168Q90.459 11.6172 90.2295 11.8613Q90 12.1055 89.6289 12.1055Q89.2676 12.1055 89.0381 11.8516Q88.8086 11.5977 88.8086 11.1582Q88.8086 10.3184 89.668 9.61523Q90.5273 8.91211 92.0801 8.91211Q93.2715 8.91211 94.0332 9.3125Q94.6094 9.61523 94.8828 10.2598Q95.0586 10.6797 95.0586 11.9785L95.0586 15.0156Q95.0586 16.2949 95.1074 16.583Q95.1563 16.8711 95.2686 16.9688Q95.3809 17.0664 95.5273 17.0664Q95.6836 17.0664 95.8008 16.998Q96.0059 16.8711 96.5918 16.2852L96.5918 16.832Q95.498 18.2969 94.502 18.2969Q94.0234 18.2969 93.7402 17.9648Q93.457 17.6328 93.4473 16.832ZM102.861 8.91211Q101.436 8.91211 99.8633 10.8066L99.8633 8.91211L99.4434 8.91211L96.748 10.0059L96.8945 10.3574Q97.2754 10.2109 97.5488 10.2109Q97.8027 10.2109 97.9541 10.3379Q98.1055 10.4648 98.1787 10.8164Q98.252 11.168 98.252 12.7793L98.252 16.0996Q98.252 17.0762 98.0127 17.4229Q97.7734 17.7695 97.0898 17.7695L96.8945 17.7695L96.8945 18.1211L101.318 18.1211L101.318 17.7695Q100.586 17.7695 100.347 17.6377Q100.107 17.5059 99.9707 17.2227Q99.8633 17.0078 99.8633 16.0996L99.8633 11.3828Q101.016 10.1133 102.178 10.1133Q102.93 10.1133 103.247 10.665Q103.564 11.2168 103.564 12.4375L103.564 16.0996Q103.564 16.8711 103.525 17.0176Q103.428 17.3887 103.179 17.5791Q102.93 17.7695 102.305 17.7695L102.119 17.7695L102.119 18.1211L106.543 18.1211L106.543 17.7695Q105.898 17.7695 105.659 17.6328Q105.42 17.4961 105.313 17.252Q105.176 16.9492 105.176 16.0996L105.176 12.2813Q105.176 11.0703 104.961 10.4844Q104.648 9.64453 104.121 9.27832Q103.594 8.91211 102.861 8.91211ZM117.324 16.832Q115.947 17.8965 115.596 18.0625Q115.068 18.3066 114.473 18.3066Q113.545 18.3066 112.944 17.6719Q112.344 17.0371 112.344 16.002Q112.344 15.3477 112.637 14.8691Q113.037 14.2051 114.028 13.6191Q115.02 13.0332 117.324 12.1934L117.324 11.8418Q117.324 10.5039 116.899 10.0059Q116.475 9.50781 115.664 9.50781Q115.049 9.50781 114.688 9.83984Q114.316 10.1719 114.316 10.6016L114.336 11.168Q114.336 11.6172 114.106 11.8613Q113.877 12.1055 113.506 12.1055Q113.145 12.1055 112.915 11.8516Q112.686 11.5977 112.686 11.1582Q112.686 10.3184 113.545 9.61523Q114.404 8.91211 115.957 8.91211Q117.148 8.91211 117.91 9.3125Q118.486 9.61523 118.76 10.2598Q118.936 10.6797 118.936 11.9785L118.936 15.0156Q118.936 16.2949 118.984 16.583Q119.033 16.8711 119.146 16.9688Q119.258 17.0664 119.404 17.0664Q119.561 17.0664 119.678 16.998Q119.883 16.8711 120.469 16.2852L120.469 16.832Q119.375 18.2969 118.379 18.2969Q117.9 18.2969 117.617 17.9648Q117.334 17.6328 117.324 16.832ZM127.314 17.4424Q128.369 16.4902 128.73 14.7227L128.447 14.5859Q127.939 15.7676 127.402 16.2168Q126.641 16.8711 125.684 16.8711Q124.346 16.8711 123.56 15.6455Q122.773 14.4199 122.773 12.8184Q122.773 11.2461 123.564 10.2891Q124.16 9.56641 125.137 9.56641Q125.742 9.56641 126.084 9.85938Q126.426 10.1621 126.479 10.7383Q126.533 11.3145 126.699 11.5195Q126.992 11.8906 127.568 11.8906Q127.998 11.8906 128.237 11.6611Q128.477 11.4316 128.477 11.0605Q128.477 10.3086 127.627 9.61035Q126.777 8.91211 125.459 8.91211Q123.701 8.91211 122.446 10.2305Q121.191 11.5488 121.191 13.6582Q121.191 15.8359 122.324 17.1152Q123.457 18.3945 124.98 18.3945Q126.26 18.3945 127.314 17.4424ZM137.607 14.7227Q137.246 16.4902 136.191 17.4424Q135.137 18.3945 133.857 18.3945Q132.334 18.3945 131.201 17.1152Q130.068 15.8359 130.068 13.6582Q130.068 11.5488 131.323 10.2305Q132.578 8.91211 134.336 8.91211Q135.654 8.91211 136.504 9.61035Q137.354 10.3086 137.354 11.0605Q137.354 11.4316 137.114 11.6611Q136.875 11.8906 136.445 11.8906Q135.869 11.8906 135.576 11.5195Q135.41 11.3145 135.356 10.7383Q135.303 10.1621 134.961 9.85938Q134.619 9.56641 134.014 9.56641Q133.037 9.56641 132.441 10.2891Q131.65 11.2461 131.65 12.8184Q131.65 14.4199 132.437 15.6455Q133.223 16.8711 134.561 16.8711Q135.518 16.8711 136.279 16.2168Q136.816 15.7676 137.324 14.5859L137.607 14.7227ZM146.523 10.4551Q145.293 8.91211 143.262 8.91211Q142.148 8.91211 141.152 9.49316Q140.156 10.0742 139.546 11.29Q138.936 12.5059 138.936 13.7363Q138.936 15.4258 139.941 16.7832Q141.133 18.3945 143.154 18.3945Q144.395 18.3945 145.405 17.7695Q146.416 17.1445 146.992 15.9141Q147.568 14.6836 147.568 13.4824Q147.568 11.7734 146.523 10.4551ZM164.492 8.91211Q163.066 8.91211 161.494 10.8066L161.494 8.91211L161.074 8.91211L158.379 10.0059L158.525 10.3574Q158.906 10.2109 159.18 10.2109Q159.434 10.2109 159.585 10.3379Q159.736 10.4648 159.81 10.8164Q159.883 11.168 159.883 12.7793L159.883 16.0996Q159.883 17.0762 159.644 17.4229Q159.404 17.7695 158.721 17.7695L158.525 17.7695L158.525 18.1211L162.949 18.1211L162.949 17.7695Q162.217 17.7695 161.978 17.6377Q161.738 17.5059 161.602 17.2227Q161.494 17.0078 161.494 16.0996L161.494 11.3828Q162.646 10.1133 163.809 10.1133Q164.561 10.1133 164.878 10.665Q165.195 11.2168 165.195 12.4375L165.195 16.0996Q165.195 16.8711 165.156 17.0176Q165.059 17.3887 164.81 17.5791Q164.561 17.7695 163.936 17.7695L163.75 17.7695L163.75 18.1211L168.174 18.1211L168.174 17.7695Q167.529 17.7695 167.29 17.6328Q167.051 17.4961 166.943 17.252Q166.807 16.9492 166.807 16.0996L166.807 12.2813Q166.807 11.0703 166.592 10.4844Q166.279 9.64453 165.752 9.27832Q165.225 8.91211 164.492 8.91211ZM64.043 9.17578L68.252 9.17578L68.252 9.53711L67.9785 9.53711Q67.5977 9.53711 67.3975 9.72266Q67.1973 9.9082 67.1973 10.2207Q67.1973 10.5625 67.4023 11.0313L69.4824 15.9727L71.5723 10.8457Q71.7969 10.2988 71.7969 10.0156Q71.7969 9.87891 71.7188 9.79102Q71.6113 9.64453 71.4453 9.59082Q71.2793 9.53711 70.7715 9.53711L70.7715 9.17578L73.6914 9.17578L73.6914 9.53711Q73.1836 9.57617 72.9883 9.74219Q72.6465 10.0352 72.373 10.7188L69.1992 18.3945L68.7988 18.3945L65.6055 10.8457Q65.3906 10.3184 65.1953 10.0889Q65 9.85938 64.6973 9.70313Q64.5313 9.61523 64.043 9.53711L64.043 9.17578ZM156.729 9.17578L156.729 14.5957Q156.729 16.1484 156.802 16.4951Q156.875 16.8418 157.036 16.9785Q157.197 17.1152 157.412 17.1152Q157.715 17.1152 158.096 16.9492L158.232 17.291L155.557 18.3945L155.117 18.3945L155.117 16.5Q153.965 17.75 153.359 18.0723Q152.754 18.3945 152.08 18.3945Q151.328 18.3945 150.776 17.96Q150.225 17.5254 150.01 16.8418Q149.795 16.1582 149.795 14.9082L149.795 10.9141Q149.795 10.2793 149.658 10.0352Q149.521 9.79102 149.253 9.65918Q148.984 9.52734 148.281 9.53711L148.281 9.17578L151.416 9.17578L151.416 15.1621Q151.416 16.4121 151.851 16.8027Q152.285 17.1934 152.9 17.1934Q153.32 17.1934 153.853 16.9297Q154.385 16.666 155.117 15.9238L155.117 10.8555Q155.117 10.0938 154.839 9.8252Q154.561 9.55664 153.682 9.53711L153.682 9.17578L156.729 9.17578ZM18.1006 9.85449Q18.623 9.54688 19.1406 9.54688Q20.2148 9.54688 20.9082 10.4844Q21.9336 11.8516 21.9336 14.2344Q21.9336 16.1387 21.3184 16.9199Q20.7031 17.7012 19.7559 17.7012Q18.4863 17.7012 17.71 16.2852Q16.9336 14.8691 16.9336 12.916Q16.9336 11.7051 17.2559 10.9336Q17.5781 10.1621 18.1006 9.85449ZM141.919 9.85449Q142.441 9.54688 142.959 9.54688Q144.033 9.54688 144.727 10.4844Q145.752 11.8516 145.752 14.2344Q145.752 16.1387 145.137 16.9199Q144.521 17.7012 143.574 17.7012Q142.305 17.7012 141.528 16.2852Q140.752 14.8691 140.752 12.916Q140.752 11.7051 141.074 10.9336Q141.396 10.1621 141.919 9.85449ZM80.1465 11.9785L76.0059 11.9785Q76.1133 10.8555 76.7529 10.2256Q77.3926 9.5957 78.2031 9.5957Q78.7305 9.5957 79.2139 9.9082Q79.6973 10.2207 79.9414 10.7676Q80.0977 11.1191 80.1465 11.9785ZM60.6934 12.7891L60.6934 16.1973Q59.4824 17.1738 58.7402 17.1738Q58.1934 17.1738 57.7734 16.71Q57.3535 16.2461 57.3535 15.543Q57.3535 14.9863 57.6855 14.5176Q58.0176 14.0488 58.7891 13.6191Q59.2188 13.375 60.6934 12.7891ZM93.4473 16.1973L93.4473 12.7891Q91.9727 13.375 91.543 13.6191Q90.7715 14.0488 90.4395 14.5176Q90.1074 14.9863 90.1074 15.543Q90.1074 16.2461 90.5273 16.71Q90.9473 17.1738 91.4941 17.1738Q92.2363 17.1738 93.4473 16.1973ZM117.324 16.1973L117.324 12.7891Q115.85 13.375 115.42 13.6191Q114.648 14.0488 114.316 14.5176Q113.984 14.9863 113.984 15.543Q113.984 16.2461 114.404 16.71Q114.824 17.1738 115.371 17.1738Q116.113 17.1738 117.324 16.1973ZM178.892 16.5244Q178.574 16.207 178.115 16.207Q177.666 16.207 177.349 16.5244Q177.031 16.8418 177.031 17.3008Q177.031 17.75 177.349 18.0674Q177.666 18.3848 178.115 18.3848Q178.564 18.3848 178.887 18.0674Q179.209 17.75 179.209 17.3008Q179.209 16.8418 178.892 16.5244Z" />
      </g>
      <g id="Register" fill="#FFFFFF">
        <path d="M93.8379 27.9033Q93.5498 27.6152 93.1396 27.6152Q92.7197 27.6152 92.4316 27.9033Q92.1436 28.1914 92.1436 28.6016Q92.1436 29.0117 92.4365 29.3047Q92.7295 29.5977 93.1396 29.5977Q93.5498 29.5977 93.8379 29.3047Q94.126 29.0117 94.126 28.6016Q94.126 28.1914 93.8379 27.9033ZM68.0029 41.502L71.5381 41.502L71.5381 41.1406Q70.4541 41.0234 69.7803 40.5938Q69.1064 40.1641 68.1689 38.8555L65.4346 35.0566Q67.1045 34.6855 67.9004 33.7871Q68.6963 32.8887 68.6963 31.668Q68.6963 30.5254 67.998 29.7002Q67.2998 28.875 66.2988 28.5674Q65.2979 28.2598 63.1885 28.2598L58.3643 28.2598L58.3643 28.6211L58.8623 28.6211Q59.6143 28.6211 59.9951 29.0508Q60.2686 29.3535 60.2686 30.6035L60.2686 39.1582Q60.2686 40.291 60.0635 40.5938Q59.7021 41.1406 58.8623 41.1406L58.3643 41.1406L58.3643 41.502L64.0381 41.502L64.0381 41.1406L63.5205 41.1406Q62.7783 41.1406 62.4072 40.7109Q62.1338 40.4082 62.1338 39.1582L62.1338 35.3105Q62.29 35.3203 62.4365 35.3252Q62.583 35.3301 62.71 35.3301Q63.0225 35.3301 63.5205 35.3105L68.0029 41.502ZM62.4561 34.7002Q62.3193 34.6953 62.1338 34.6953L62.1338 29.1875Q63.1006 29.002 63.667 29.002Q64.9463 29.002 65.7227 29.7783Q66.499 30.5547 66.499 31.7949Q66.499 33.0645 65.5371 33.8848Q64.5752 34.7051 62.6807 34.7051Q62.5928 34.7051 62.4561 34.7002ZM106.802 32.5566L106.802 29.6172L106.499 29.6172Q106.099 30.6035 105.874 30.9746Q105.435 31.6777 104.873 32.1904Q104.312 32.7031 103.774 32.918L103.774 33.2402L105.19 33.2402L105.19 39.2559Q105.19 40.2227 105.396 40.6865Q105.601 41.1504 106.03 41.3994Q106.46 41.6484 106.909 41.6484Q107.573 41.6484 108.198 41.165Q108.823 40.6816 109.165 39.7246L108.784 39.7246Q108.618 40.1152 108.315 40.3154Q108.013 40.5156 107.69 40.5156Q107.3 40.5156 107.051 40.2129Q106.802 39.9102 106.802 39.041L106.802 33.2402L108.892 33.2402L108.892 32.5566L106.802 32.5566ZM74.458 39.0508Q73.4814 37.918 73.4912 35.9258L79.6729 35.9258Q79.6729 34.2656 78.7061 33.2744Q77.7393 32.2832 76.2354 32.2832Q74.458 32.2832 73.2813 33.5674Q72.1045 34.8516 72.1045 37.1465Q72.1045 39.2656 73.252 40.5205Q74.3994 41.7754 76.0107 41.7754Q77.4951 41.7754 78.4814 40.6768Q79.4678 39.5781 79.6729 38.2402L79.3701 38.0449Q78.9307 39.2168 78.2813 39.7002Q77.6318 40.1836 76.7529 40.1836Q75.4346 40.1836 74.458 39.0508ZM111.265 35.9258Q111.255 37.918 112.231 39.0508Q113.208 40.1836 114.526 40.1836Q115.405 40.1836 116.055 39.7002Q116.704 39.2168 117.144 38.0449L117.446 38.2402Q117.241 39.5781 116.255 40.6768Q115.269 41.7754 113.784 41.7754Q112.173 41.7754 111.025 40.5205Q109.878 39.2656 109.878 37.1465Q109.878 34.8516 111.055 33.5674Q112.231 32.2832 114.009 32.2832Q115.513 32.2832 116.479 33.2744Q117.446 34.2656 117.446 35.9258L111.265 35.9258ZM83.2568 38.2402Q82.4365 37.8398 81.9971 37.1221Q81.5576 36.4043 81.5576 35.5352Q81.5576 34.207 82.5586 33.25Q83.5596 32.293 85.1221 32.293Q86.4014 32.293 87.3389 32.918L89.2334 32.918Q89.6533 32.918 89.7217 32.9424Q89.79 32.9668 89.8193 33.0254Q89.8779 33.1133 89.8779 33.3379Q89.8779 33.5918 89.8291 33.6895Q89.7998 33.7383 89.7266 33.7676Q89.6533 33.7969 89.2334 33.7969L88.0713 33.7969Q88.6182 34.5 88.6182 35.5938Q88.6182 36.8438 87.6611 37.7324Q86.7041 38.6211 85.0928 38.6211Q84.4287 38.6211 83.7354 38.4258Q83.3057 38.7969 83.1543 39.0752Q83.0029 39.3535 83.0029 39.5488Q83.0029 39.7148 83.1641 39.8711Q83.3252 40.0273 83.7939 40.0957Q84.0674 40.1348 85.1611 40.1641Q87.1729 40.2129 87.7686 40.3008Q88.6768 40.4277 89.2188 40.9746Q89.7607 41.5215 89.7607 42.3223Q89.7607 43.4258 88.7256 44.3926Q87.2021 45.8184 84.751 45.8184Q82.8662 45.8184 81.5674 44.9688Q80.835 44.4805 80.835 43.9531Q80.835 43.7188 80.9424 43.4844Q81.1084 43.123 81.626 42.4785Q81.6943 42.3906 82.6221 41.4238Q82.1143 41.1211 81.9043 40.8818Q81.6943 40.6426 81.6943 40.3398Q81.6943 39.998 81.9727 39.5391Q82.251 39.0801 83.2568 38.2402ZM93.9502 39.4805L93.9502 32.293L93.5205 32.293L90.8252 33.3867L90.9619 33.7383Q91.3525 33.5918 91.626 33.5918Q91.8799 33.5918 92.0264 33.7139Q92.1729 33.8359 92.2412 34.1484Q92.3291 34.5781 92.3291 36.0332L92.3291 39.4805Q92.3291 40.3105 92.1973 40.6035Q92.0654 40.8965 91.8408 41.0234Q91.6162 41.1504 90.9619 41.1504L90.9619 41.502L95.3076 41.502L95.3076 41.1504Q94.6729 41.1504 94.4336 41.0137Q94.1943 40.877 94.0723 40.5986Q93.9502 40.3203 93.9502 39.4805ZM102.202 32.293L102.202 35.3398L101.88 35.3398Q101.509 33.9043 100.928 33.3867Q100.347 32.8691 99.4482 32.8691Q98.7646 32.8691 98.3447 33.2305Q97.9248 33.5918 97.9248 34.0313Q97.9248 34.5781 98.2373 34.9688Q98.54 35.3691 99.4678 35.8184L100.894 36.5117Q102.876 37.4785 102.876 39.0605Q102.876 40.2813 101.953 41.0283Q101.03 41.7754 99.8877 41.7754Q99.0674 41.7754 98.0127 41.4824Q97.6904 41.3848 97.4854 41.3848Q97.2607 41.3848 97.1338 41.6387L96.8115 41.6387L96.8115 38.4453L97.1338 38.4453Q97.4072 39.8125 98.1787 40.5059Q98.9502 41.1992 99.9072 41.1992Q100.581 41.1992 101.006 40.8037Q101.431 40.4082 101.431 39.8516Q101.431 39.1777 100.957 38.7188Q100.483 38.2598 99.0674 37.5566Q97.6514 36.8535 97.2119 36.2871Q96.7725 35.7305 96.7725 34.8809Q96.7725 33.7773 97.5293 33.0352Q98.2861 32.293 99.4873 32.293Q100.015 32.293 100.767 32.5176Q101.265 32.6641 101.431 32.6641Q101.587 32.6641 101.675 32.5957Q101.763 32.5273 101.88 32.293L102.202 32.293ZM121.255 34.3047L121.255 32.293L120.845 32.293L118.14 33.3867L118.237 33.7383Q118.618 33.5918 118.921 33.5918Q119.175 33.5918 119.346 33.7285Q119.517 33.8652 119.58 34.1631Q119.644 34.4609 119.644 36.0234L119.644 39.4902Q119.644 40.2715 119.595 40.4375Q119.497 40.7793 119.253 40.9355Q118.921 41.1504 118.237 41.1504L118.237 41.502L122.817 41.502L122.817 41.1504Q122.212 41.1504 121.89 40.9746Q121.567 40.7988 121.44 40.5352Q121.255 40.1543 121.255 39.4121L121.255 35.125Q121.724 34.207 122.163 33.8066Q122.368 33.6113 122.544 33.6113Q122.749 33.6113 123.174 33.9482Q123.599 34.2852 123.94 34.2852Q124.292 34.2852 124.546 34.0215Q124.8 33.7578 124.8 33.377Q124.8 32.9473 124.448 32.6201Q124.097 32.293 123.56 32.293Q122.378 32.293 121.255 34.3047ZM84.9561 32.7617Q84.2334 32.7617 83.7451 33.3379Q83.2568 33.9141 83.2568 35.1055Q83.2568 36.6484 83.9209 37.498Q84.4287 38.1426 85.21 38.1426Q85.9521 38.1426 86.4307 37.5859Q86.9092 37.0293 86.9092 35.8379Q86.9092 34.2852 86.2354 33.4063Q85.7373 32.7617 84.9561 32.7617ZM77.6318 35.3594L73.4912 35.3594Q73.5986 34.2363 74.2383 33.6064Q74.8779 32.9766 75.6885 32.9766Q76.2158 32.9766 76.6992 33.2891Q77.1826 33.6016 77.4268 34.1484Q77.583 34.5 77.6318 35.3594ZM111.265 35.3594L115.405 35.3594Q115.356 34.5 115.2 34.1484Q114.956 33.6016 114.473 33.2891Q113.989 32.9766 113.462 32.9766Q112.651 32.9766 112.012 33.6064Q111.372 34.2363 111.265 35.3594ZM83.1592 41.502Q82.7002 42 82.4658 42.4297Q82.2314 42.8594 82.2314 43.2207Q82.2314 43.6895 82.7979 44.041Q83.7744 44.6465 85.6201 44.6465Q87.3779 44.6465 88.2129 44.0264Q89.0479 43.4063 89.0479 42.7031Q89.0479 42.1953 88.5498 41.9805Q88.042 41.7656 86.5381 41.7266Q84.3408 41.668 83.1592 41.502Z" />
      </g>
    </g>
    <g id="" fill="#59ADFF" transform="translate(131.49988 76.60007)">
      <path d="M8.83301 44.4111Q8.5957 43.7256 8.41113 42.6313Q8.22656 41.5371 8.22656 40.4561Q8.22656 38.7686 8.89893 37.4106Q9.57129 36.0527 10.5732 34.8662Q11.5752 33.6797 12.7617 32.5854Q13.9482 31.4912 14.9502 30.3706Q15.9521 29.25 16.6245 28.0239Q17.2969 26.7979 17.2969 25.3213Q17.2969 24.0557 16.8091 23.0801Q16.3213 22.1045 15.4775 21.4453Q14.6338 20.7861 13.5264 20.4565Q12.4189 20.127 11.1797 20.127Q6.72363 20.127 3.4541 23.6338L3.4541 18.9932Q7.48828 16.4619 11.8125 16.4619Q13.8164 16.4619 15.583 16.9893Q17.3496 17.5166 18.6812 18.5581Q20.0127 19.5996 20.7773 21.1553Q21.542 22.7109 21.542 24.7676Q21.542 26.7188 20.8564 28.248Q20.1709 29.7773 19.1294 31.0562Q18.0879 32.335 16.875 33.4424Q15.6621 34.5498 14.6206 35.644Q13.5791 36.7383 12.8936 37.9248Q12.208 39.1113 12.208 40.5352Q12.208 41.748 12.498 42.7368Q12.7881 43.7256 13.0781 44.4111L8.83301 44.4111ZM11.2061 55.3799Q10.0459 55.3799 9.14941 54.5361Q8.2793 53.6924 8.2793 52.4795Q8.2793 51.2402 9.14941 50.4229Q10.0195 49.5527 11.2061 49.5527Q12.3926 49.5527 13.2627 50.4229Q14.1328 51.2402 14.1328 52.4795Q14.1328 53.6924 13.2627 54.5361Q12.3662 55.3799 11.2061 55.3799Z" />
    </g>
    <g id="" fill="#59ADFF" transform="matrix(0.79863584 0.6018146 -0.6018146 0.79863584 311.17786 599.7174)">
      <path d="M8.0625 8.45313L8.0625 10.1719Q7.625 10.2344 7.46875 10.3594Q7.3125 10.4844 7.3125 10.7656Q7.3125 11.0313 7.39063 11.25L7.53125 11.6094Q7.65625 11.9531 7.65625 12.3594Q7.65625 13.4219 6.875 14.1406Q6.09375 14.8594 4.95313 14.8594Q3.78125 14.8594 2.96094 14.0781Q2.14063 13.2969 2.14063 12.1875Q2.14063 10.5781 3.82813 9.48438Q4.57813 9 5.60938 8.72656Q6.64063 8.45313 7.6875 8.45313L8.0625 8.45313ZM9.39063 10.2656L9.39063 8.51563Q10.8281 8.70313 11.9219 9.32813Q13.4219 10.2031 14.2813 11.6484Q15.1406 13.0938 15.1406 14.7656Q15.1406 15.9375 14.7109 17.0703Q14.2812 18.2031 13.5 19.0938Q12.6406 20.0781 11.3203 20.7109Q10 21.3438 8.40625 21.5313Q7.67188 21.625 7.47656 21.8047Q7.28125 21.9844 7.28125 22.5781Q7.28125 23.0938 7.10156 23.3125Q6.92187 23.5313 6.51563 23.5313Q5.70312 23.5313 5.70313 22.6094L5.70313 17.125Q5.70313 16.7813 5.73438 16.6875Q5.76562 16.5938 5.89063 16.5313Q6.10937 16.4219 6.67188 16.4219Q8.09375 16.4219 9.17188 15.4688Q10.3438 14.4375 10.3438 12.6094Q10.3438 11.7813 10.1172 11.2266Q9.89063 10.6719 9.39063 10.2656ZM6.875 24.5469Q8.125 24.5469 9.01563 25.4375Q9.90625 26.3281 9.90625 27.5781Q9.90625 28.8438 9.01563 29.7344Q8.125 30.625 6.875 30.625Q5.60938 30.625 4.71875 29.7344Q3.82813 28.8438 3.82813 27.5781Q3.82813 26.3281 4.71875 25.4375Q5.60938 24.5469 6.875 24.5469Z" />
    </g>
    <g id="" fill="#59ADFF" transform="matrix(0.7986359 -0.60181457 0.60181457 0.7986359 89.00006 609.45264)">
      <path d="M8.0625 8.45313L8.0625 10.1719Q7.625 10.2344 7.46875 10.3594Q7.3125 10.4844 7.3125 10.7656Q7.3125 11.0313 7.39063 11.25L7.53125 11.6094Q7.65625 11.9531 7.65625 12.3594Q7.65625 13.4219 6.875 14.1406Q6.09375 14.8594 4.95313 14.8594Q3.78125 14.8594 2.96094 14.0781Q2.14063 13.2969 2.14063 12.1875Q2.14063 10.5781 3.82813 9.48438Q4.57813 9 5.60938 8.72656Q6.64063 8.45313 7.6875 8.45313L8.0625 8.45313ZM9.39063 10.2656L9.39063 8.51563Q10.8281 8.70313 11.9219 9.32813Q13.4219 10.2031 14.2813 11.6484Q15.1406 13.0938 15.1406 14.7656Q15.1406 15.9375 14.7109 17.0703Q14.2812 18.2031 13.5 19.0938Q12.6406 20.0781 11.3203 20.7109Q10 21.3438 8.40625 21.5313Q7.67188 21.625 7.47656 21.8047Q7.28125 21.9844 7.28125 22.5781Q7.28125 23.0938 7.10156 23.3125Q6.92187 23.5313 6.51563 23.5313Q5.70312 23.5313 5.70313 22.6094L5.70313 17.125Q5.70313 16.7813 5.73438 16.6875Q5.76562 16.5938 5.89063 16.5313Q6.10937 16.4219 6.67188 16.4219Q8.09375 16.4219 9.17188 15.4688Q10.3438 14.4375 10.3438 12.6094Q10.3438 11.7813 10.1172 11.2266Q9.89063 10.6719 9.39063 10.2656ZM6.875 24.5469Q8.125 24.5469 9.01563 25.4375Q9.90625 26.3281 9.90625 27.5781Q9.90625 28.8438 9.01563 29.7344Q8.125 30.625 6.875 30.625Q5.60938 30.625 4.71875 29.7344Q3.82813 28.8438 3.82813 27.5781Q3.82813 26.3281 4.71875 25.4375Q5.60938 24.5469 6.875 24.5469Z" />
    </g>
    <g id="" fill="#59ADFF" transform="matrix(1 -4.760241E-08 4.760241E-08 1 198.33829 574.8301)">
      <path d="M8.0625 8.45313L8.0625 10.1719Q7.625 10.2344 7.46875 10.3594Q7.3125 10.4844 7.3125 10.7656Q7.3125 11.0313 7.39063 11.25L7.53125 11.6094Q7.65625 11.9531 7.65625 12.3594Q7.65625 13.4219 6.875 14.1406Q6.09375 14.8594 4.95313 14.8594Q3.78125 14.8594 2.96094 14.0781Q2.14063 13.2969 2.14063 12.1875Q2.14063 10.5781 3.82813 9.48438Q4.57813 9 5.60938 8.72656Q6.64063 8.45313 7.6875 8.45313L8.0625 8.45313ZM9.39063 10.2656L9.39063 8.51563Q10.8281 8.70313 11.9219 9.32813Q13.4219 10.2031 14.2813 11.6484Q15.1406 13.0938 15.1406 14.7656Q15.1406 15.9375 14.7109 17.0703Q14.2812 18.2031 13.5 19.0938Q12.6406 20.0781 11.3203 20.7109Q10 21.3438 8.40625 21.5313Q7.67188 21.625 7.47656 21.8047Q7.28125 21.9844 7.28125 22.5781Q7.28125 23.0938 7.10156 23.3125Q6.92187 23.5313 6.51563 23.5313Q5.70312 23.5313 5.70313 22.6094L5.70313 17.125Q5.70313 16.7813 5.73438 16.6875Q5.76562 16.5938 5.89063 16.5313Q6.10937 16.4219 6.67188 16.4219Q8.09375 16.4219 9.17188 15.4688Q10.3438 14.4375 10.3438 12.6094Q10.3438 11.7813 10.1172 11.2266Q9.89063 10.6719 9.39063 10.2656ZM6.875 24.5469Q8.125 24.5469 9.01563 25.4375Q9.90625 26.3281 9.90625 27.5781Q9.90625 28.8438 9.01563 29.7344Q8.125 30.625 6.875 30.625Q5.60938 30.625 4.71875 29.7344Q3.82813 28.8438 3.82813 27.5781Q3.82813 26.3281 4.71875 25.4375Q5.60938 24.5469 6.875 24.5469Z" />
    </g>
  </g>
</svg>